M48
; DRILL file {KiCad 5.1.6} date Thu May 21 11:34:41 2020
; FORMAT={-:-/ absolute / inch / decimal}
; #@! TF.CreationDate,2020-05-21T11:34:41+02:00
; #@! TF.GenerationSoftware,Kicad,Pcbnew,5.1.6
FMAT,2
INCH
T1C0.0100
T2C0.0120
T3C0.0160
T4C0.0200
T5C0.0256
T6C0.0276
T7C0.0280
T8C0.0362
T9C0.0390
T10C0.0394
T11C0.0512
T12C0.0906
%
G90
G05
T1
X3.705Y-2.88
X3.76Y-3.805
X3.8025Y-3.0125
X3.8375Y-3.6475
X3.8675Y-3.8575
X3.8735Y-3.7919
X3.9088Y-3.8114
X3.9158Y-3.7062
X3.92Y-3.515
X3.928Y-3.302
X3.932Y-3.3967
X3.9345Y-3.1662
X3.936Y-3.3538
X3.938Y-3.7
X3.9437Y-2.9117
X3.945Y-3.375
X3.968Y-3.524
X3.986Y-3.256
X4.0248Y-3.8798
X4.0286Y-2.8359
X4.0294Y-3.1372
X4.06Y-3.26
X4.06Y-3.605
X4.06Y-3.815
X4.066Y-3.849
X4.07Y-3.524
X4.0782Y-3.3332
X4.083Y-3.815
X4.1004Y-3.4796
X4.1061Y-3.1657
X4.1115Y-2.9109
X4.115Y-3.996
X4.115Y-4.035
X4.125Y-2.71
X4.141Y-3.1674
X4.142Y-3.524
X4.155Y-2.7
X4.16Y-3.395
X4.16Y-3.745
X4.16Y-3.935
X4.2448Y-3.7465
X4.2485Y-2.86
X4.2589Y-3.0153
X4.275Y-3.935
X4.28Y-3.745
X4.285Y-3.485
X4.305Y-3.115
X4.305Y-3.1975
X4.305Y-3.235
X4.3135Y-3.8475
X4.33Y-2.81
X4.3487Y-3.6291
X4.351Y-3.6887
X4.3513Y-3.3425
X4.37Y-2.835
X4.3775Y-2.8775
X4.3825Y-3.3107
X4.4175Y-2.8775
X4.43Y-3.76
X4.4339Y-3.8941
X4.437Y-3.148
X4.4373Y-3.79
X4.4454Y-3.4054
X4.4455Y-3.4367
X4.4459Y-3.4692
X4.4475Y-3.5919
X4.4486Y-3.5272
X4.475Y-2.7
X4.475Y-3.5
X4.476Y-3.4062
X4.4775Y-4.1925
X4.4775Y-4.2155
X4.478Y-3.4678
X4.4786Y-3.5933
X4.5078Y-3.9366
X4.5092Y-3.5941
X4.521Y-2.905
X4.525Y-3.025
X4.54Y-3.4052
X4.54Y-3.47
X4.54Y-3.53
X4.54Y-3.5945
X4.54Y-3.6578
X4.5401Y-3.7201
X4.5401Y-3.4374
X4.5406Y-3.688
X4.5408Y-3.7725
X4.5695Y-3.4396
X4.5712Y-3.4055
X4.5715Y-3.5948
X4.5725Y-3.4671
X4.575Y-3.53
X4.575Y-4.225
X4.575Y-4.2525
X4.5773Y-3.7727
X4.5949Y-3.895
X4.6001Y-3.4348
X4.6033Y-3.6575
X4.6033Y-3.689
X4.6033Y-3.7205
X4.604Y-3.4062
X4.605Y-3.83
X4.6115Y-3.055
X4.6115Y-3.095
X4.6283Y-3.8467
X4.6338Y-3.564
X4.6341Y-3.5308
X4.6345Y-3.4688
X4.6348Y-3.5
X4.645Y-2.7
X4.6483Y-3.8667
X4.65Y-2.94
X4.6657Y-3.6575
X4.6659Y-3.7205
X4.685Y-4.4125
X4.6885Y-4.0412
X4.6885Y-4.0645
X4.6897Y-3.8153
X4.6898Y-3.8852
X4.6923Y-4.0926
X4.695Y-3.75
X4.6963Y-3.6882
X4.6975Y-3.6575
X4.6975Y-4.02
X4.71Y-3.785
X4.7238Y-4.0188
X4.724Y-4.25
X4.725Y-2.94
X4.725Y-2.98
X4.7286Y-3.3739
X4.7289Y-3.3114
X4.729Y-3.3422
X4.7305Y-3.6554
X4.747Y-4.02
X4.747Y-4.25
X4.765Y-3.02
X4.77Y-4.02
X4.77Y-4.25
X4.7883Y-4.0617
X4.795Y-3.245
X4.805Y-3.485
X4.805Y-3.735
X4.805Y-4.4125
X4.81Y-4.02
X4.8225Y-4.1885
X4.8375Y-3.237
X4.8375Y-3.26
X4.8425Y-3.92
X4.8721Y-3.4954
X4.8775Y-3.75
X4.88Y-3.19
X4.88Y-3.2975
X4.9Y-3.38
X4.9225Y-4.0125
X4.942Y-3.315
X4.9425Y-3.74
X4.9446Y-4.0504
X4.945Y-3.22
X4.95Y-4.115
X4.975Y-4.145
X4.975Y-4.1825
X5.005Y-3.515
X5.0266Y-3.2707
X5.0425Y-3.29
X5.1075Y-3.5675
X5.1344Y-3.4157
X5.135Y-3.3775
X5.1375Y-3.4385
X5.1375Y-3.4615
X5.1425Y-3.5325
X5.158Y-3.3773
X5.2092Y-3.4583
X5.215Y-3.43
X5.2254Y-3.4746
X5.24Y-3.285
X5.24Y-3.33
X5.275Y-3.405
X5.2879Y-3.4662
X5.3075Y-3.705
X5.31Y-3.295
X5.32Y-3.385
X5.365Y-3.48
X5.44Y-3.26
X5.441Y-4.226
X5.4452Y-3.4077
X5.47Y-3.455
X5.485Y-3.205
T2
X4.6958Y-2.683
X4.6958Y-2.7224
X4.6958Y-2.7617
X4.7234Y-2.683
X4.7234Y-2.7224
X4.7234Y-2.7617
X4.8966Y-2.683
X4.8966Y-2.7224
X4.8966Y-2.7617
X4.9242Y-2.683
X4.9242Y-2.7224
X4.9242Y-2.7617
X4.2058Y-2.683
X4.2058Y-2.7224
X4.2058Y-2.7617
X4.2334Y-2.683
X4.2334Y-2.7224
X4.2334Y-2.7617
X4.4066Y-2.683
X4.4066Y-2.7224
X4.4066Y-2.7617
X4.4342Y-2.683
X4.4342Y-2.7224
X4.4342Y-2.7617
T3
X3.857Y-3.019
X3.865Y-4.485
X3.935Y-4.485
X4.005Y-4.485
X4.05Y-3.71
X4.075Y-4.485
X4.0925Y-2.955
X4.145Y-4.485
X4.2031Y-3.1068
X4.379Y-2.946
X5.365Y-3.38
X5.51Y-3.42
T4
X3.7325Y-3.0125
X3.7725Y-3.5925
X3.9178Y-3.0154
X3.995Y-4.085
X4.2025Y-3.0275
X4.4275Y-4.26
X4.5618Y-2.9468
X4.7625Y-4.42
X4.9025Y-2.9575
X4.915Y-3.895
X4.98Y-3.895
X5.0175Y-3.41
X5.045Y-3.895
X5.11Y-3.895
X5.175Y-3.895
X5.24Y-3.895
T7
X5.13Y-4.225
X5.13Y-4.275
X5.18Y-4.225
X5.18Y-4.275
X5.23Y-4.225
X5.23Y-4.275
X5.28Y-4.225
X5.28Y-4.275
X5.33Y-4.225
X5.33Y-4.275
X5.13Y-3.99
X5.13Y-4.04
X5.18Y-3.99
X5.18Y-4.04
X5.23Y-3.99
X5.23Y-4.04
X5.28Y-3.99
X5.28Y-4.04
X5.33Y-3.99
X5.33Y-4.04
T8
X5.0675Y-2.8174
X5.0675Y-2.9158
X5.0675Y-3.0142
X5.0675Y-3.1126
T9
X4.6619Y-4.5225
X4.8391Y-4.5225
X5.0419Y-4.523
X5.2191Y-4.523
X4.2859Y-4.523
X4.4631Y-4.523
T10
X3.885Y-2.67
X3.885Y-2.77
X3.985Y-2.67
X3.985Y-2.77
X4.085Y-2.67
X4.085Y-2.77
T11
X4.6125Y-4.4245
X4.8885Y-4.4245
X4.9925Y-4.425
X5.2685Y-4.425
X4.2365Y-4.425
X4.5125Y-4.425
T12
X5.1742Y-2.7071
X5.1742Y-3.2229
T5
X3.8038Y-3.9518G85X3.8196Y-3.9518
G05
X3.8063Y-3.2462G85X3.8221Y-3.2462
G05
X3.8063Y-3.4368G85X3.8221Y-3.4368
G05
X5.3646Y-3.5575G85X5.3488Y-3.5575
G05
X5.3646Y-3.7481G85X5.3488Y-3.7481
G05
X3.8038Y-3.7612G85X3.8196Y-3.7612
G05
T6
X3.6838Y-3.749G85X3.7034Y-3.749
G05
X3.6838Y-3.964G85X3.7034Y-3.964
G05
X3.6863Y-3.234G85X3.7059Y-3.234
G05
X3.6863Y-3.449G85X3.7059Y-3.449
G05
X5.4847Y-3.5453G85X5.465Y-3.5453
G05
X5.4847Y-3.7603G85X5.465Y-3.7603
G05
T0
M30
