G04 #@! TF.GenerationSoftware,KiCad,Pcbnew,5.1.6*
G04 #@! TF.CreationDate,2020-05-21T11:34:31+02:00*
G04 #@! TF.ProjectId,luna_rev0,6c756e61-5f72-4657-9630-2e6b69636164,r0*
G04 #@! TF.SameCoordinates,Original*
G04 #@! TF.FileFunction,Paste,Top*
G04 #@! TF.FilePolarity,Positive*
%FSLAX46Y46*%
G04 Gerber Fmt 4.6, Leading zero omitted, Abs format (unit mm)*
G04 Created by KiCad (PCBNEW 5.1.6) date 2020-05-21 11:34:31*
%MOMM*%
%LPD*%
G01*
G04 APERTURE LIST*
%ADD10C,0.410000*%
%ADD11R,0.800000X0.550000*%
%ADD12R,2.000000X1.350000*%
%ADD13R,0.700000X1.825000*%
%ADD14R,1.500000X2.000000*%
%ADD15R,1.650000X0.400000*%
%ADD16R,2.500000X1.430000*%
%ADD17C,0.400000*%
%ADD18R,0.650000X1.060000*%
%ADD19R,1.300000X0.250000*%
%ADD20R,0.250000X1.300000*%
%ADD21R,2.100000X1.400000*%
%ADD22R,1.400000X2.100000*%
%ADD23R,1.060000X0.650000*%
%ADD24R,0.450000X0.300000*%
%ADD25R,0.800000X0.900000*%
G04 APERTURE END LIST*
G36*
G01*
X133177500Y-88201000D02*
X133522500Y-88201000D01*
G75*
G02*
X133670000Y-88348500I0J-147500D01*
G01*
X133670000Y-88643500D01*
G75*
G02*
X133522500Y-88791000I-147500J0D01*
G01*
X133177500Y-88791000D01*
G75*
G02*
X133030000Y-88643500I0J147500D01*
G01*
X133030000Y-88348500D01*
G75*
G02*
X133177500Y-88201000I147500J0D01*
G01*
G37*
G36*
G01*
X133177500Y-87231000D02*
X133522500Y-87231000D01*
G75*
G02*
X133670000Y-87378500I0J-147500D01*
G01*
X133670000Y-87673500D01*
G75*
G02*
X133522500Y-87821000I-147500J0D01*
G01*
X133177500Y-87821000D01*
G75*
G02*
X133030000Y-87673500I0J147500D01*
G01*
X133030000Y-87378500D01*
G75*
G02*
X133177500Y-87231000I147500J0D01*
G01*
G37*
D10*
X109316000Y-82900000D03*
X110116000Y-82900000D03*
X110916000Y-82900000D03*
X111716000Y-82900000D03*
X112516000Y-82900000D03*
X113316000Y-82900000D03*
X114116000Y-82900000D03*
X114916000Y-82900000D03*
X115716000Y-82900000D03*
X116516000Y-82900000D03*
X117316000Y-82900000D03*
X118116000Y-82900000D03*
X118916000Y-82900000D03*
X119716000Y-82900000D03*
X120516000Y-82900000D03*
X121316000Y-82900000D03*
X109316000Y-83700000D03*
X110116000Y-83700000D03*
X110916000Y-83700000D03*
X111716000Y-83700000D03*
X112516000Y-83700000D03*
X113316000Y-83700000D03*
X114116000Y-83700000D03*
X114916000Y-83700000D03*
X115716000Y-83700000D03*
X116516000Y-83700000D03*
X117316000Y-83700000D03*
X118116000Y-83700000D03*
X118916000Y-83700000D03*
X119716000Y-83700000D03*
X120516000Y-83700000D03*
X121316000Y-83700000D03*
X109316000Y-84500000D03*
X110116000Y-84500000D03*
X110916000Y-84500000D03*
X111716000Y-84500000D03*
X112516000Y-84500000D03*
X113316000Y-84500000D03*
X114116000Y-84500000D03*
X114916000Y-84500000D03*
X115716000Y-84500000D03*
X116516000Y-84500000D03*
X117316000Y-84500000D03*
X118116000Y-84500000D03*
X118916000Y-84500000D03*
X119716000Y-84500000D03*
X120516000Y-84500000D03*
X121316000Y-84500000D03*
X109316000Y-85300000D03*
X110116000Y-85300000D03*
X110916000Y-85300000D03*
X111716000Y-85300000D03*
X112516000Y-85300000D03*
X113316000Y-85300000D03*
X114116000Y-85300000D03*
X114916000Y-85300000D03*
X115716000Y-85300000D03*
X116516000Y-85300000D03*
X117316000Y-85300000D03*
X118116000Y-85300000D03*
X118916000Y-85300000D03*
X119716000Y-85300000D03*
X120516000Y-85300000D03*
X121316000Y-85300000D03*
X109316000Y-86100000D03*
X110116000Y-86100000D03*
X110916000Y-86100000D03*
X111716000Y-86100000D03*
X112516000Y-86100000D03*
X113316000Y-86100000D03*
X114116000Y-86100000D03*
X114916000Y-86100000D03*
X115716000Y-86100000D03*
X116516000Y-86100000D03*
X117316000Y-86100000D03*
X118116000Y-86100000D03*
X118916000Y-86100000D03*
X119716000Y-86100000D03*
X120516000Y-86100000D03*
X121316000Y-86100000D03*
X109316000Y-86900000D03*
X110116000Y-86900000D03*
X110916000Y-86900000D03*
X111716000Y-86900000D03*
X112516000Y-86900000D03*
X113316000Y-86900000D03*
X114116000Y-86900000D03*
X114916000Y-86900000D03*
X115716000Y-86900000D03*
X116516000Y-86900000D03*
X117316000Y-86900000D03*
X118116000Y-86900000D03*
X118916000Y-86900000D03*
X119716000Y-86900000D03*
X120516000Y-86900000D03*
X121316000Y-86900000D03*
X109316000Y-87700000D03*
X110116000Y-87700000D03*
X110916000Y-87700000D03*
X111716000Y-87700000D03*
X112516000Y-87700000D03*
X113316000Y-87700000D03*
X114116000Y-87700000D03*
X114916000Y-87700000D03*
X115716000Y-87700000D03*
X116516000Y-87700000D03*
X117316000Y-87700000D03*
X118116000Y-87700000D03*
X118916000Y-87700000D03*
X119716000Y-87700000D03*
X120516000Y-87700000D03*
X121316000Y-87700000D03*
X109316000Y-88500000D03*
X110116000Y-88500000D03*
X110916000Y-88500000D03*
X111716000Y-88500000D03*
X112516000Y-88500000D03*
X113316000Y-88500000D03*
X114116000Y-88500000D03*
X114916000Y-88500000D03*
X115716000Y-88500000D03*
X116516000Y-88500000D03*
X117316000Y-88500000D03*
X118116000Y-88500000D03*
X118916000Y-88500000D03*
X119716000Y-88500000D03*
X120516000Y-88500000D03*
X121316000Y-88500000D03*
X109316000Y-89300000D03*
X110116000Y-89300000D03*
X110916000Y-89300000D03*
X111716000Y-89300000D03*
X112516000Y-89300000D03*
X113316000Y-89300000D03*
X114116000Y-89300000D03*
X114916000Y-89300000D03*
X115716000Y-89300000D03*
X116516000Y-89300000D03*
X117316000Y-89300000D03*
X118116000Y-89300000D03*
X118916000Y-89300000D03*
X119716000Y-89300000D03*
X120516000Y-89300000D03*
X121316000Y-89300000D03*
X109316000Y-90100000D03*
X110116000Y-90100000D03*
X110916000Y-90100000D03*
X111716000Y-90100000D03*
X112516000Y-90100000D03*
X113316000Y-90100000D03*
X114116000Y-90100000D03*
X114916000Y-90100000D03*
X115716000Y-90100000D03*
X116516000Y-90100000D03*
X117316000Y-90100000D03*
X118116000Y-90100000D03*
X118916000Y-90100000D03*
X119716000Y-90100000D03*
X120516000Y-90100000D03*
X121316000Y-90100000D03*
X109316000Y-90900000D03*
X110116000Y-90900000D03*
X110916000Y-90900000D03*
X111716000Y-90900000D03*
X112516000Y-90900000D03*
X113316000Y-90900000D03*
X114116000Y-90900000D03*
X114916000Y-90900000D03*
X115716000Y-90900000D03*
X116516000Y-90900000D03*
X117316000Y-90900000D03*
X118116000Y-90900000D03*
X118916000Y-90900000D03*
X119716000Y-90900000D03*
X120516000Y-90900000D03*
X121316000Y-90900000D03*
X109316000Y-91700000D03*
X110116000Y-91700000D03*
X110916000Y-91700000D03*
X111716000Y-91700000D03*
X112516000Y-91700000D03*
X113316000Y-91700000D03*
X114116000Y-91700000D03*
X114916000Y-91700000D03*
X115716000Y-91700000D03*
X116516000Y-91700000D03*
X117316000Y-91700000D03*
X118116000Y-91700000D03*
X118916000Y-91700000D03*
X119716000Y-91700000D03*
X120516000Y-91700000D03*
X121316000Y-91700000D03*
X109316000Y-92500000D03*
X110116000Y-92500000D03*
X110916000Y-92500000D03*
X111716000Y-92500000D03*
X112516000Y-92500000D03*
X113316000Y-92500000D03*
X114116000Y-92500000D03*
X114916000Y-92500000D03*
X115716000Y-92500000D03*
X116516000Y-92500000D03*
X117316000Y-92500000D03*
X118116000Y-92500000D03*
X118916000Y-92500000D03*
X119716000Y-92500000D03*
X120516000Y-92500000D03*
X121316000Y-92500000D03*
X109316000Y-93300000D03*
X110116000Y-93300000D03*
X110916000Y-93300000D03*
X111716000Y-93300000D03*
X112516000Y-93300000D03*
X113316000Y-93300000D03*
X114116000Y-93300000D03*
X114916000Y-93300000D03*
X115716000Y-93300000D03*
X116516000Y-93300000D03*
X117316000Y-93300000D03*
X118116000Y-93300000D03*
X118916000Y-93300000D03*
X119716000Y-93300000D03*
X120516000Y-93300000D03*
X121316000Y-93300000D03*
X109316000Y-94100000D03*
X110116000Y-94100000D03*
X110916000Y-94100000D03*
X111716000Y-94100000D03*
X112516000Y-94100000D03*
X113316000Y-94100000D03*
X114116000Y-94100000D03*
X114916000Y-94100000D03*
X115716000Y-94100000D03*
X116516000Y-94100000D03*
X117316000Y-94100000D03*
X118116000Y-94100000D03*
X118916000Y-94100000D03*
X119716000Y-94100000D03*
X120516000Y-94100000D03*
X121316000Y-94100000D03*
X109316000Y-94900000D03*
X110116000Y-94900000D03*
X110916000Y-94900000D03*
X111716000Y-94900000D03*
X112516000Y-94900000D03*
X113316000Y-94900000D03*
X114116000Y-94900000D03*
X114916000Y-94900000D03*
X115716000Y-94900000D03*
X116516000Y-94900000D03*
X117316000Y-94900000D03*
X118116000Y-94900000D03*
X118916000Y-94900000D03*
X119716000Y-94900000D03*
X120516000Y-94900000D03*
X121316000Y-94900000D03*
G36*
G01*
X136443500Y-87059000D02*
X136098500Y-87059000D01*
G75*
G02*
X135951000Y-86911500I0J147500D01*
G01*
X135951000Y-86616500D01*
G75*
G02*
X136098500Y-86469000I147500J0D01*
G01*
X136443500Y-86469000D01*
G75*
G02*
X136591000Y-86616500I0J-147500D01*
G01*
X136591000Y-86911500D01*
G75*
G02*
X136443500Y-87059000I-147500J0D01*
G01*
G37*
G36*
G01*
X136443500Y-88029000D02*
X136098500Y-88029000D01*
G75*
G02*
X135951000Y-87881500I0J147500D01*
G01*
X135951000Y-87586500D01*
G75*
G02*
X136098500Y-87439000I147500J0D01*
G01*
X136443500Y-87439000D01*
G75*
G02*
X136591000Y-87586500I0J-147500D01*
G01*
X136591000Y-87881500D01*
G75*
G02*
X136443500Y-88029000I-147500J0D01*
G01*
G37*
G36*
G01*
X133812500Y-85407000D02*
X134157500Y-85407000D01*
G75*
G02*
X134305000Y-85554500I0J-147500D01*
G01*
X134305000Y-85849500D01*
G75*
G02*
X134157500Y-85997000I-147500J0D01*
G01*
X133812500Y-85997000D01*
G75*
G02*
X133665000Y-85849500I0J147500D01*
G01*
X133665000Y-85554500D01*
G75*
G02*
X133812500Y-85407000I147500J0D01*
G01*
G37*
G36*
G01*
X133812500Y-84437000D02*
X134157500Y-84437000D01*
G75*
G02*
X134305000Y-84584500I0J-147500D01*
G01*
X134305000Y-84879500D01*
G75*
G02*
X134157500Y-85027000I-147500J0D01*
G01*
X133812500Y-85027000D01*
G75*
G02*
X133665000Y-84879500I0J147500D01*
G01*
X133665000Y-84584500D01*
G75*
G02*
X133812500Y-84437000I147500J0D01*
G01*
G37*
D11*
X139884000Y-85918000D03*
X139884000Y-87818000D03*
X137484000Y-87818000D03*
X137484000Y-86868000D03*
X137484000Y-85918000D03*
X135071000Y-84643000D03*
X135071000Y-82743000D03*
X137471000Y-82743000D03*
X137471000Y-83693000D03*
X137471000Y-84643000D03*
G36*
G01*
X138862750Y-84016000D02*
X139775250Y-84016000D01*
G75*
G02*
X140019000Y-84259750I0J-243750D01*
G01*
X140019000Y-84747250D01*
G75*
G02*
X139775250Y-84991000I-243750J0D01*
G01*
X138862750Y-84991000D01*
G75*
G02*
X138619000Y-84747250I0J243750D01*
G01*
X138619000Y-84259750D01*
G75*
G02*
X138862750Y-84016000I243750J0D01*
G01*
G37*
G36*
G01*
X138862750Y-82141000D02*
X139775250Y-82141000D01*
G75*
G02*
X140019000Y-82384750I0J-243750D01*
G01*
X140019000Y-82872250D01*
G75*
G02*
X139775250Y-83116000I-243750J0D01*
G01*
X138862750Y-83116000D01*
G75*
G02*
X138619000Y-82872250I0J243750D01*
G01*
X138619000Y-82384750D01*
G75*
G02*
X138862750Y-82141000I243750J0D01*
G01*
G37*
G36*
G01*
X95727000Y-72265250D02*
X95727000Y-71752750D01*
G75*
G02*
X95945750Y-71534000I218750J0D01*
G01*
X96383250Y-71534000D01*
G75*
G02*
X96602000Y-71752750I0J-218750D01*
G01*
X96602000Y-72265250D01*
G75*
G02*
X96383250Y-72484000I-218750J0D01*
G01*
X95945750Y-72484000D01*
G75*
G02*
X95727000Y-72265250I0J218750D01*
G01*
G37*
G36*
G01*
X94152000Y-72265250D02*
X94152000Y-71752750D01*
G75*
G02*
X94370750Y-71534000I218750J0D01*
G01*
X94808250Y-71534000D01*
G75*
G02*
X95027000Y-71752750I0J-218750D01*
G01*
X95027000Y-72265250D01*
G75*
G02*
X94808250Y-72484000I-218750J0D01*
G01*
X94370750Y-72484000D01*
G75*
G02*
X94152000Y-72265250I0J218750D01*
G01*
G37*
D12*
X138130500Y-90031000D03*
X138130500Y-95511000D03*
D13*
X137380500Y-95731000D03*
X137380500Y-89781000D03*
D14*
X136080500Y-95631000D03*
X136060500Y-89881000D03*
D15*
X136180500Y-94081000D03*
X136180500Y-93431000D03*
X136180500Y-92781000D03*
X136180500Y-92131000D03*
X136180500Y-91481000D03*
D16*
X139330500Y-93741000D03*
X139330500Y-91821000D03*
X93611000Y-85834500D03*
X93611000Y-83914500D03*
D15*
X96761000Y-86174500D03*
X96761000Y-85524500D03*
X96761000Y-84874500D03*
X96761000Y-84224500D03*
X96761000Y-83574500D03*
D14*
X96881000Y-87774500D03*
X96861000Y-82024500D03*
D13*
X95561000Y-87874500D03*
X95561000Y-81924500D03*
D12*
X94811000Y-82144500D03*
X94811000Y-87624500D03*
X94747500Y-100705500D03*
X94747500Y-95225500D03*
D13*
X95497500Y-95005500D03*
X95497500Y-100955500D03*
D14*
X96797500Y-95105500D03*
X96817500Y-100855500D03*
D15*
X96697500Y-96655500D03*
X96697500Y-97305500D03*
X96697500Y-97955500D03*
X96697500Y-98605500D03*
X96697500Y-99255500D03*
D16*
X93547500Y-96995500D03*
X93547500Y-98915500D03*
D17*
X120507000Y-74200000D03*
X119507000Y-74200000D03*
X118507000Y-74200000D03*
X117507000Y-74200000D03*
X121507000Y-75200000D03*
X120507000Y-75200000D03*
X119507000Y-75200000D03*
X118507000Y-75200000D03*
X117507000Y-75200000D03*
X121507000Y-76200000D03*
X120507000Y-76200000D03*
X119507000Y-76200000D03*
X118507000Y-76200000D03*
X117507000Y-76200000D03*
X121507000Y-77200000D03*
X120507000Y-77200000D03*
X119507000Y-77200000D03*
X118507000Y-77200000D03*
X117507000Y-77200000D03*
X121507000Y-78200000D03*
X120507000Y-78200000D03*
X119507000Y-78200000D03*
X118507000Y-78200000D03*
X117507000Y-78200000D03*
D18*
X101396800Y-78232000D03*
X103296800Y-78232000D03*
X103296800Y-80432000D03*
X102346800Y-80432000D03*
X101396800Y-80432000D03*
G36*
G01*
X104729500Y-78805400D02*
X105074500Y-78805400D01*
G75*
G02*
X105222000Y-78952900I0J-147500D01*
G01*
X105222000Y-79247900D01*
G75*
G02*
X105074500Y-79395400I-147500J0D01*
G01*
X104729500Y-79395400D01*
G75*
G02*
X104582000Y-79247900I0J147500D01*
G01*
X104582000Y-78952900D01*
G75*
G02*
X104729500Y-78805400I147500J0D01*
G01*
G37*
G36*
G01*
X104729500Y-77835400D02*
X105074500Y-77835400D01*
G75*
G02*
X105222000Y-77982900I0J-147500D01*
G01*
X105222000Y-78277900D01*
G75*
G02*
X105074500Y-78425400I-147500J0D01*
G01*
X104729500Y-78425400D01*
G75*
G02*
X104582000Y-78277900I0J147500D01*
G01*
X104582000Y-77982900D01*
G75*
G02*
X104729500Y-77835400I147500J0D01*
G01*
G37*
G36*
G01*
X98405200Y-77518550D02*
X98405200Y-78031050D01*
G75*
G02*
X98186450Y-78249800I-218750J0D01*
G01*
X97748950Y-78249800D01*
G75*
G02*
X97530200Y-78031050I0J218750D01*
G01*
X97530200Y-77518550D01*
G75*
G02*
X97748950Y-77299800I218750J0D01*
G01*
X98186450Y-77299800D01*
G75*
G02*
X98405200Y-77518550I0J-218750D01*
G01*
G37*
G36*
G01*
X99980200Y-77518550D02*
X99980200Y-78031050D01*
G75*
G02*
X99761450Y-78249800I-218750J0D01*
G01*
X99323950Y-78249800D01*
G75*
G02*
X99105200Y-78031050I0J218750D01*
G01*
X99105200Y-77518550D01*
G75*
G02*
X99323950Y-77299800I218750J0D01*
G01*
X99761450Y-77299800D01*
G75*
G02*
X99980200Y-77518550I0J-218750D01*
G01*
G37*
G36*
G01*
X119276500Y-111079500D02*
X119276500Y-111424500D01*
G75*
G02*
X119129000Y-111572000I-147500J0D01*
G01*
X118834000Y-111572000D01*
G75*
G02*
X118686500Y-111424500I0J147500D01*
G01*
X118686500Y-111079500D01*
G75*
G02*
X118834000Y-110932000I147500J0D01*
G01*
X119129000Y-110932000D01*
G75*
G02*
X119276500Y-111079500I0J-147500D01*
G01*
G37*
G36*
G01*
X120246500Y-111079500D02*
X120246500Y-111424500D01*
G75*
G02*
X120099000Y-111572000I-147500J0D01*
G01*
X119804000Y-111572000D01*
G75*
G02*
X119656500Y-111424500I0J147500D01*
G01*
X119656500Y-111079500D01*
G75*
G02*
X119804000Y-110932000I147500J0D01*
G01*
X120099000Y-110932000D01*
G75*
G02*
X120246500Y-111079500I0J-147500D01*
G01*
G37*
D19*
X123730000Y-108033000D03*
X123730000Y-107533000D03*
X123730000Y-107033000D03*
X123730000Y-106533000D03*
X123730000Y-106033000D03*
X123730000Y-105533000D03*
X123730000Y-105033000D03*
X123730000Y-104533000D03*
X123730000Y-104033000D03*
X123730000Y-103533000D03*
X123730000Y-103033000D03*
X123730000Y-102533000D03*
D20*
X122130000Y-100933000D03*
X121630000Y-100933000D03*
X121130000Y-100933000D03*
X120630000Y-100933000D03*
X120130000Y-100933000D03*
X119630000Y-100933000D03*
X119130000Y-100933000D03*
X118630000Y-100933000D03*
X118130000Y-100933000D03*
X117630000Y-100933000D03*
X117130000Y-100933000D03*
X116630000Y-100933000D03*
D19*
X115030000Y-102533000D03*
X115030000Y-103033000D03*
X115030000Y-103533000D03*
X115030000Y-104033000D03*
X115030000Y-104533000D03*
X115030000Y-105033000D03*
X115030000Y-105533000D03*
X115030000Y-106033000D03*
X115030000Y-106533000D03*
X115030000Y-107033000D03*
X115030000Y-107533000D03*
X115030000Y-108033000D03*
D20*
X116630000Y-109633000D03*
X117130000Y-109633000D03*
X117630000Y-109633000D03*
X118130000Y-109633000D03*
X118630000Y-109633000D03*
X119130000Y-109633000D03*
X119630000Y-109633000D03*
X120130000Y-109633000D03*
X120630000Y-109633000D03*
X121130000Y-109633000D03*
X121630000Y-109633000D03*
X122130000Y-109633000D03*
G36*
G01*
X126283500Y-93536000D02*
X125938500Y-93536000D01*
G75*
G02*
X125791000Y-93388500I0J147500D01*
G01*
X125791000Y-93093500D01*
G75*
G02*
X125938500Y-92946000I147500J0D01*
G01*
X126283500Y-92946000D01*
G75*
G02*
X126431000Y-93093500I0J-147500D01*
G01*
X126431000Y-93388500D01*
G75*
G02*
X126283500Y-93536000I-147500J0D01*
G01*
G37*
G36*
G01*
X126283500Y-94506000D02*
X125938500Y-94506000D01*
G75*
G02*
X125791000Y-94358500I0J147500D01*
G01*
X125791000Y-94063500D01*
G75*
G02*
X125938500Y-93916000I147500J0D01*
G01*
X126283500Y-93916000D01*
G75*
G02*
X126431000Y-94063500I0J-147500D01*
G01*
X126431000Y-94358500D01*
G75*
G02*
X126283500Y-94506000I-147500J0D01*
G01*
G37*
G36*
G01*
X102363000Y-100099000D02*
X102363000Y-99799000D01*
G75*
G02*
X102513000Y-99649000I150000J0D01*
G01*
X103813000Y-99649000D01*
G75*
G02*
X103963000Y-99799000I0J-150000D01*
G01*
X103963000Y-100099000D01*
G75*
G02*
X103813000Y-100249000I-150000J0D01*
G01*
X102513000Y-100249000D01*
G75*
G02*
X102363000Y-100099000I0J150000D01*
G01*
G37*
G36*
G01*
X102363000Y-101369000D02*
X102363000Y-101069000D01*
G75*
G02*
X102513000Y-100919000I150000J0D01*
G01*
X103813000Y-100919000D01*
G75*
G02*
X103963000Y-101069000I0J-150000D01*
G01*
X103963000Y-101369000D01*
G75*
G02*
X103813000Y-101519000I-150000J0D01*
G01*
X102513000Y-101519000D01*
G75*
G02*
X102363000Y-101369000I0J150000D01*
G01*
G37*
G36*
G01*
X102363000Y-102639000D02*
X102363000Y-102339000D01*
G75*
G02*
X102513000Y-102189000I150000J0D01*
G01*
X103813000Y-102189000D01*
G75*
G02*
X103963000Y-102339000I0J-150000D01*
G01*
X103963000Y-102639000D01*
G75*
G02*
X103813000Y-102789000I-150000J0D01*
G01*
X102513000Y-102789000D01*
G75*
G02*
X102363000Y-102639000I0J150000D01*
G01*
G37*
G36*
G01*
X102363000Y-103909000D02*
X102363000Y-103609000D01*
G75*
G02*
X102513000Y-103459000I150000J0D01*
G01*
X103813000Y-103459000D01*
G75*
G02*
X103963000Y-103609000I0J-150000D01*
G01*
X103963000Y-103909000D01*
G75*
G02*
X103813000Y-104059000I-150000J0D01*
G01*
X102513000Y-104059000D01*
G75*
G02*
X102363000Y-103909000I0J150000D01*
G01*
G37*
G36*
G01*
X109563000Y-103909000D02*
X109563000Y-103609000D01*
G75*
G02*
X109713000Y-103459000I150000J0D01*
G01*
X111013000Y-103459000D01*
G75*
G02*
X111163000Y-103609000I0J-150000D01*
G01*
X111163000Y-103909000D01*
G75*
G02*
X111013000Y-104059000I-150000J0D01*
G01*
X109713000Y-104059000D01*
G75*
G02*
X109563000Y-103909000I0J150000D01*
G01*
G37*
G36*
G01*
X109563000Y-102639000D02*
X109563000Y-102339000D01*
G75*
G02*
X109713000Y-102189000I150000J0D01*
G01*
X111013000Y-102189000D01*
G75*
G02*
X111163000Y-102339000I0J-150000D01*
G01*
X111163000Y-102639000D01*
G75*
G02*
X111013000Y-102789000I-150000J0D01*
G01*
X109713000Y-102789000D01*
G75*
G02*
X109563000Y-102639000I0J150000D01*
G01*
G37*
G36*
G01*
X109563000Y-101369000D02*
X109563000Y-101069000D01*
G75*
G02*
X109713000Y-100919000I150000J0D01*
G01*
X111013000Y-100919000D01*
G75*
G02*
X111163000Y-101069000I0J-150000D01*
G01*
X111163000Y-101369000D01*
G75*
G02*
X111013000Y-101519000I-150000J0D01*
G01*
X109713000Y-101519000D01*
G75*
G02*
X109563000Y-101369000I0J150000D01*
G01*
G37*
G36*
G01*
X109563000Y-100099000D02*
X109563000Y-99799000D01*
G75*
G02*
X109713000Y-99649000I150000J0D01*
G01*
X111013000Y-99649000D01*
G75*
G02*
X111163000Y-99799000I0J-150000D01*
G01*
X111163000Y-100099000D01*
G75*
G02*
X111013000Y-100249000I-150000J0D01*
G01*
X109713000Y-100249000D01*
G75*
G02*
X109563000Y-100099000I0J150000D01*
G01*
G37*
G36*
G01*
X98935250Y-73691000D02*
X98422750Y-73691000D01*
G75*
G02*
X98204000Y-73472250I0J218750D01*
G01*
X98204000Y-73034750D01*
G75*
G02*
X98422750Y-72816000I218750J0D01*
G01*
X98935250Y-72816000D01*
G75*
G02*
X99154000Y-73034750I0J-218750D01*
G01*
X99154000Y-73472250D01*
G75*
G02*
X98935250Y-73691000I-218750J0D01*
G01*
G37*
G36*
G01*
X98935250Y-75266000D02*
X98422750Y-75266000D01*
G75*
G02*
X98204000Y-75047250I0J218750D01*
G01*
X98204000Y-74609750D01*
G75*
G02*
X98422750Y-74391000I218750J0D01*
G01*
X98935250Y-74391000D01*
G75*
G02*
X99154000Y-74609750I0J-218750D01*
G01*
X99154000Y-75047250D01*
G75*
G02*
X98935250Y-75266000I-218750J0D01*
G01*
G37*
G36*
G01*
X125303500Y-106235000D02*
X125648500Y-106235000D01*
G75*
G02*
X125796000Y-106382500I0J-147500D01*
G01*
X125796000Y-106677500D01*
G75*
G02*
X125648500Y-106825000I-147500J0D01*
G01*
X125303500Y-106825000D01*
G75*
G02*
X125156000Y-106677500I0J147500D01*
G01*
X125156000Y-106382500D01*
G75*
G02*
X125303500Y-106235000I147500J0D01*
G01*
G37*
G36*
G01*
X125303500Y-105265000D02*
X125648500Y-105265000D01*
G75*
G02*
X125796000Y-105412500I0J-147500D01*
G01*
X125796000Y-105707500D01*
G75*
G02*
X125648500Y-105855000I-147500J0D01*
G01*
X125303500Y-105855000D01*
G75*
G02*
X125156000Y-105707500I0J147500D01*
G01*
X125156000Y-105412500D01*
G75*
G02*
X125303500Y-105265000I147500J0D01*
G01*
G37*
G36*
G01*
X113710500Y-109492000D02*
X113365500Y-109492000D01*
G75*
G02*
X113218000Y-109344500I0J147500D01*
G01*
X113218000Y-109049500D01*
G75*
G02*
X113365500Y-108902000I147500J0D01*
G01*
X113710500Y-108902000D01*
G75*
G02*
X113858000Y-109049500I0J-147500D01*
G01*
X113858000Y-109344500D01*
G75*
G02*
X113710500Y-109492000I-147500J0D01*
G01*
G37*
G36*
G01*
X113710500Y-108522000D02*
X113365500Y-108522000D01*
G75*
G02*
X113218000Y-108374500I0J147500D01*
G01*
X113218000Y-108079500D01*
G75*
G02*
X113365500Y-107932000I147500J0D01*
G01*
X113710500Y-107932000D01*
G75*
G02*
X113858000Y-108079500I0J-147500D01*
G01*
X113858000Y-108374500D01*
G75*
G02*
X113710500Y-108522000I-147500J0D01*
G01*
G37*
G36*
G01*
X121729000Y-111424500D02*
X121729000Y-111079500D01*
G75*
G02*
X121876500Y-110932000I147500J0D01*
G01*
X122171500Y-110932000D01*
G75*
G02*
X122319000Y-111079500I0J-147500D01*
G01*
X122319000Y-111424500D01*
G75*
G02*
X122171500Y-111572000I-147500J0D01*
G01*
X121876500Y-111572000D01*
G75*
G02*
X121729000Y-111424500I0J147500D01*
G01*
G37*
G36*
G01*
X120759000Y-111424500D02*
X120759000Y-111079500D01*
G75*
G02*
X120906500Y-110932000I147500J0D01*
G01*
X121201500Y-110932000D01*
G75*
G02*
X121349000Y-111079500I0J-147500D01*
G01*
X121349000Y-111424500D01*
G75*
G02*
X121201500Y-111572000I-147500J0D01*
G01*
X120906500Y-111572000D01*
G75*
G02*
X120759000Y-111424500I0J147500D01*
G01*
G37*
G36*
G01*
X113434150Y-71799900D02*
X113946650Y-71799900D01*
G75*
G02*
X114165400Y-72018650I0J-218750D01*
G01*
X114165400Y-72456150D01*
G75*
G02*
X113946650Y-72674900I-218750J0D01*
G01*
X113434150Y-72674900D01*
G75*
G02*
X113215400Y-72456150I0J218750D01*
G01*
X113215400Y-72018650D01*
G75*
G02*
X113434150Y-71799900I218750J0D01*
G01*
G37*
G36*
G01*
X113434150Y-73374900D02*
X113946650Y-73374900D01*
G75*
G02*
X114165400Y-73593650I0J-218750D01*
G01*
X114165400Y-74031150D01*
G75*
G02*
X113946650Y-74249900I-218750J0D01*
G01*
X113434150Y-74249900D01*
G75*
G02*
X113215400Y-74031150I0J218750D01*
G01*
X113215400Y-73593650D01*
G75*
G02*
X113434150Y-73374900I218750J0D01*
G01*
G37*
G36*
G01*
X107944500Y-80139250D02*
X107944500Y-79626750D01*
G75*
G02*
X108163250Y-79408000I218750J0D01*
G01*
X108600750Y-79408000D01*
G75*
G02*
X108819500Y-79626750I0J-218750D01*
G01*
X108819500Y-80139250D01*
G75*
G02*
X108600750Y-80358000I-218750J0D01*
G01*
X108163250Y-80358000D01*
G75*
G02*
X107944500Y-80139250I0J218750D01*
G01*
G37*
G36*
G01*
X106369500Y-80139250D02*
X106369500Y-79626750D01*
G75*
G02*
X106588250Y-79408000I218750J0D01*
G01*
X107025750Y-79408000D01*
G75*
G02*
X107244500Y-79626750I0J-218750D01*
G01*
X107244500Y-80139250D01*
G75*
G02*
X107025750Y-80358000I-218750J0D01*
G01*
X106588250Y-80358000D01*
G75*
G02*
X106369500Y-80139250I0J218750D01*
G01*
G37*
G36*
G01*
X113291000Y-76011750D02*
X113291000Y-75499250D01*
G75*
G02*
X113509750Y-75280500I218750J0D01*
G01*
X113947250Y-75280500D01*
G75*
G02*
X114166000Y-75499250I0J-218750D01*
G01*
X114166000Y-76011750D01*
G75*
G02*
X113947250Y-76230500I-218750J0D01*
G01*
X113509750Y-76230500D01*
G75*
G02*
X113291000Y-76011750I0J218750D01*
G01*
G37*
G36*
G01*
X111716000Y-76011750D02*
X111716000Y-75499250D01*
G75*
G02*
X111934750Y-75280500I218750J0D01*
G01*
X112372250Y-75280500D01*
G75*
G02*
X112591000Y-75499250I0J-218750D01*
G01*
X112591000Y-76011750D01*
G75*
G02*
X112372250Y-76230500I-218750J0D01*
G01*
X111934750Y-76230500D01*
G75*
G02*
X111716000Y-76011750I0J218750D01*
G01*
G37*
G36*
G01*
X106927000Y-75181750D02*
X106927000Y-75694250D01*
G75*
G02*
X106708250Y-75913000I-218750J0D01*
G01*
X106270750Y-75913000D01*
G75*
G02*
X106052000Y-75694250I0J218750D01*
G01*
X106052000Y-75181750D01*
G75*
G02*
X106270750Y-74963000I218750J0D01*
G01*
X106708250Y-74963000D01*
G75*
G02*
X106927000Y-75181750I0J-218750D01*
G01*
G37*
G36*
G01*
X105352000Y-75181750D02*
X105352000Y-75694250D01*
G75*
G02*
X105133250Y-75913000I-218750J0D01*
G01*
X104695750Y-75913000D01*
G75*
G02*
X104477000Y-75694250I0J218750D01*
G01*
X104477000Y-75181750D01*
G75*
G02*
X104695750Y-74963000I218750J0D01*
G01*
X105133250Y-74963000D01*
G75*
G02*
X105352000Y-75181750I0J-218750D01*
G01*
G37*
G36*
G01*
X100221000Y-78948500D02*
X100221000Y-79293500D01*
G75*
G02*
X100073500Y-79441000I-147500J0D01*
G01*
X99778500Y-79441000D01*
G75*
G02*
X99631000Y-79293500I0J147500D01*
G01*
X99631000Y-78948500D01*
G75*
G02*
X99778500Y-78801000I147500J0D01*
G01*
X100073500Y-78801000D01*
G75*
G02*
X100221000Y-78948500I0J-147500D01*
G01*
G37*
G36*
G01*
X99251000Y-78948500D02*
X99251000Y-79293500D01*
G75*
G02*
X99103500Y-79441000I-147500J0D01*
G01*
X98808500Y-79441000D01*
G75*
G02*
X98661000Y-79293500I0J147500D01*
G01*
X98661000Y-78948500D01*
G75*
G02*
X98808500Y-78801000I147500J0D01*
G01*
X99103500Y-78801000D01*
G75*
G02*
X99251000Y-78948500I0J-147500D01*
G01*
G37*
G36*
G01*
X92918500Y-71546500D02*
X93263500Y-71546500D01*
G75*
G02*
X93411000Y-71694000I0J-147500D01*
G01*
X93411000Y-71989000D01*
G75*
G02*
X93263500Y-72136500I-147500J0D01*
G01*
X92918500Y-72136500D01*
G75*
G02*
X92771000Y-71989000I0J147500D01*
G01*
X92771000Y-71694000D01*
G75*
G02*
X92918500Y-71546500I147500J0D01*
G01*
G37*
G36*
G01*
X92918500Y-72516500D02*
X93263500Y-72516500D01*
G75*
G02*
X93411000Y-72664000I0J-147500D01*
G01*
X93411000Y-72959000D01*
G75*
G02*
X93263500Y-73106500I-147500J0D01*
G01*
X92918500Y-73106500D01*
G75*
G02*
X92771000Y-72959000I0J147500D01*
G01*
X92771000Y-72664000D01*
G75*
G02*
X92918500Y-72516500I147500J0D01*
G01*
G37*
D21*
X94805500Y-78844500D03*
X94805500Y-74444500D03*
G36*
G01*
X132858500Y-97237000D02*
X133333500Y-97237000D01*
G75*
G02*
X133571000Y-97474500I0J-237500D01*
G01*
X133571000Y-98049500D01*
G75*
G02*
X133333500Y-98287000I-237500J0D01*
G01*
X132858500Y-98287000D01*
G75*
G02*
X132621000Y-98049500I0J237500D01*
G01*
X132621000Y-97474500D01*
G75*
G02*
X132858500Y-97237000I237500J0D01*
G01*
G37*
G36*
G01*
X132858500Y-95487000D02*
X133333500Y-95487000D01*
G75*
G02*
X133571000Y-95724500I0J-237500D01*
G01*
X133571000Y-96299500D01*
G75*
G02*
X133333500Y-96537000I-237500J0D01*
G01*
X132858500Y-96537000D01*
G75*
G02*
X132621000Y-96299500I0J237500D01*
G01*
X132621000Y-95724500D01*
G75*
G02*
X132858500Y-95487000I237500J0D01*
G01*
G37*
G36*
G01*
X131207500Y-95501000D02*
X131682500Y-95501000D01*
G75*
G02*
X131920000Y-95738500I0J-237500D01*
G01*
X131920000Y-96313500D01*
G75*
G02*
X131682500Y-96551000I-237500J0D01*
G01*
X131207500Y-96551000D01*
G75*
G02*
X130970000Y-96313500I0J237500D01*
G01*
X130970000Y-95738500D01*
G75*
G02*
X131207500Y-95501000I237500J0D01*
G01*
G37*
G36*
G01*
X131207500Y-97251000D02*
X131682500Y-97251000D01*
G75*
G02*
X131920000Y-97488500I0J-237500D01*
G01*
X131920000Y-98063500D01*
G75*
G02*
X131682500Y-98301000I-237500J0D01*
G01*
X131207500Y-98301000D01*
G75*
G02*
X130970000Y-98063500I0J237500D01*
G01*
X130970000Y-97488500D01*
G75*
G02*
X131207500Y-97251000I237500J0D01*
G01*
G37*
G36*
G01*
X129556500Y-97251000D02*
X130031500Y-97251000D01*
G75*
G02*
X130269000Y-97488500I0J-237500D01*
G01*
X130269000Y-98063500D01*
G75*
G02*
X130031500Y-98301000I-237500J0D01*
G01*
X129556500Y-98301000D01*
G75*
G02*
X129319000Y-98063500I0J237500D01*
G01*
X129319000Y-97488500D01*
G75*
G02*
X129556500Y-97251000I237500J0D01*
G01*
G37*
G36*
G01*
X129556500Y-95501000D02*
X130031500Y-95501000D01*
G75*
G02*
X130269000Y-95738500I0J-237500D01*
G01*
X130269000Y-96313500D01*
G75*
G02*
X130031500Y-96551000I-237500J0D01*
G01*
X129556500Y-96551000D01*
G75*
G02*
X129319000Y-96313500I0J237500D01*
G01*
X129319000Y-95738500D01*
G75*
G02*
X129556500Y-95501000I237500J0D01*
G01*
G37*
G36*
G01*
X127905500Y-97237000D02*
X128380500Y-97237000D01*
G75*
G02*
X128618000Y-97474500I0J-237500D01*
G01*
X128618000Y-98049500D01*
G75*
G02*
X128380500Y-98287000I-237500J0D01*
G01*
X127905500Y-98287000D01*
G75*
G02*
X127668000Y-98049500I0J237500D01*
G01*
X127668000Y-97474500D01*
G75*
G02*
X127905500Y-97237000I237500J0D01*
G01*
G37*
G36*
G01*
X127905500Y-95487000D02*
X128380500Y-95487000D01*
G75*
G02*
X128618000Y-95724500I0J-237500D01*
G01*
X128618000Y-96299500D01*
G75*
G02*
X128380500Y-96537000I-237500J0D01*
G01*
X127905500Y-96537000D01*
G75*
G02*
X127668000Y-96299500I0J237500D01*
G01*
X127668000Y-95724500D01*
G75*
G02*
X127905500Y-95487000I237500J0D01*
G01*
G37*
G36*
G01*
X126254500Y-95487000D02*
X126729500Y-95487000D01*
G75*
G02*
X126967000Y-95724500I0J-237500D01*
G01*
X126967000Y-96299500D01*
G75*
G02*
X126729500Y-96537000I-237500J0D01*
G01*
X126254500Y-96537000D01*
G75*
G02*
X126017000Y-96299500I0J237500D01*
G01*
X126017000Y-95724500D01*
G75*
G02*
X126254500Y-95487000I237500J0D01*
G01*
G37*
G36*
G01*
X126254500Y-97237000D02*
X126729500Y-97237000D01*
G75*
G02*
X126967000Y-97474500I0J-237500D01*
G01*
X126967000Y-98049500D01*
G75*
G02*
X126729500Y-98287000I-237500J0D01*
G01*
X126254500Y-98287000D01*
G75*
G02*
X126017000Y-98049500I0J237500D01*
G01*
X126017000Y-97474500D01*
G75*
G02*
X126254500Y-97237000I237500J0D01*
G01*
G37*
G36*
G01*
X124603500Y-95487000D02*
X125078500Y-95487000D01*
G75*
G02*
X125316000Y-95724500I0J-237500D01*
G01*
X125316000Y-96299500D01*
G75*
G02*
X125078500Y-96537000I-237500J0D01*
G01*
X124603500Y-96537000D01*
G75*
G02*
X124366000Y-96299500I0J237500D01*
G01*
X124366000Y-95724500D01*
G75*
G02*
X124603500Y-95487000I237500J0D01*
G01*
G37*
G36*
G01*
X124603500Y-97237000D02*
X125078500Y-97237000D01*
G75*
G02*
X125316000Y-97474500I0J-237500D01*
G01*
X125316000Y-98049500D01*
G75*
G02*
X125078500Y-98287000I-237500J0D01*
G01*
X124603500Y-98287000D01*
G75*
G02*
X124366000Y-98049500I0J237500D01*
G01*
X124366000Y-97474500D01*
G75*
G02*
X124603500Y-97237000I237500J0D01*
G01*
G37*
D22*
X94152000Y-91249500D03*
X98552000Y-91249500D03*
G36*
G01*
X97933500Y-110233000D02*
X98408500Y-110233000D01*
G75*
G02*
X98646000Y-110470500I0J-237500D01*
G01*
X98646000Y-111045500D01*
G75*
G02*
X98408500Y-111283000I-237500J0D01*
G01*
X97933500Y-111283000D01*
G75*
G02*
X97696000Y-111045500I0J237500D01*
G01*
X97696000Y-110470500D01*
G75*
G02*
X97933500Y-110233000I237500J0D01*
G01*
G37*
G36*
G01*
X97933500Y-111983000D02*
X98408500Y-111983000D01*
G75*
G02*
X98646000Y-112220500I0J-237500D01*
G01*
X98646000Y-112795500D01*
G75*
G02*
X98408500Y-113033000I-237500J0D01*
G01*
X97933500Y-113033000D01*
G75*
G02*
X97696000Y-112795500I0J237500D01*
G01*
X97696000Y-112220500D01*
G75*
G02*
X97933500Y-111983000I237500J0D01*
G01*
G37*
G36*
G01*
X99711500Y-110233000D02*
X100186500Y-110233000D01*
G75*
G02*
X100424000Y-110470500I0J-237500D01*
G01*
X100424000Y-111045500D01*
G75*
G02*
X100186500Y-111283000I-237500J0D01*
G01*
X99711500Y-111283000D01*
G75*
G02*
X99474000Y-111045500I0J237500D01*
G01*
X99474000Y-110470500D01*
G75*
G02*
X99711500Y-110233000I237500J0D01*
G01*
G37*
G36*
G01*
X99711500Y-111983000D02*
X100186500Y-111983000D01*
G75*
G02*
X100424000Y-112220500I0J-237500D01*
G01*
X100424000Y-112795500D01*
G75*
G02*
X100186500Y-113033000I-237500J0D01*
G01*
X99711500Y-113033000D01*
G75*
G02*
X99474000Y-112795500I0J237500D01*
G01*
X99474000Y-112220500D01*
G75*
G02*
X99711500Y-111983000I237500J0D01*
G01*
G37*
G36*
G01*
X101489500Y-111983000D02*
X101964500Y-111983000D01*
G75*
G02*
X102202000Y-112220500I0J-237500D01*
G01*
X102202000Y-112795500D01*
G75*
G02*
X101964500Y-113033000I-237500J0D01*
G01*
X101489500Y-113033000D01*
G75*
G02*
X101252000Y-112795500I0J237500D01*
G01*
X101252000Y-112220500D01*
G75*
G02*
X101489500Y-111983000I237500J0D01*
G01*
G37*
G36*
G01*
X101489500Y-110233000D02*
X101964500Y-110233000D01*
G75*
G02*
X102202000Y-110470500I0J-237500D01*
G01*
X102202000Y-111045500D01*
G75*
G02*
X101964500Y-111283000I-237500J0D01*
G01*
X101489500Y-111283000D01*
G75*
G02*
X101252000Y-111045500I0J237500D01*
G01*
X101252000Y-110470500D01*
G75*
G02*
X101489500Y-110233000I237500J0D01*
G01*
G37*
G36*
G01*
X103267500Y-111983000D02*
X103742500Y-111983000D01*
G75*
G02*
X103980000Y-112220500I0J-237500D01*
G01*
X103980000Y-112795500D01*
G75*
G02*
X103742500Y-113033000I-237500J0D01*
G01*
X103267500Y-113033000D01*
G75*
G02*
X103030000Y-112795500I0J237500D01*
G01*
X103030000Y-112220500D01*
G75*
G02*
X103267500Y-111983000I237500J0D01*
G01*
G37*
G36*
G01*
X103267500Y-110233000D02*
X103742500Y-110233000D01*
G75*
G02*
X103980000Y-110470500I0J-237500D01*
G01*
X103980000Y-111045500D01*
G75*
G02*
X103742500Y-111283000I-237500J0D01*
G01*
X103267500Y-111283000D01*
G75*
G02*
X103030000Y-111045500I0J237500D01*
G01*
X103030000Y-110470500D01*
G75*
G02*
X103267500Y-110233000I237500J0D01*
G01*
G37*
G36*
G01*
X105045500Y-110233000D02*
X105520500Y-110233000D01*
G75*
G02*
X105758000Y-110470500I0J-237500D01*
G01*
X105758000Y-111045500D01*
G75*
G02*
X105520500Y-111283000I-237500J0D01*
G01*
X105045500Y-111283000D01*
G75*
G02*
X104808000Y-111045500I0J237500D01*
G01*
X104808000Y-110470500D01*
G75*
G02*
X105045500Y-110233000I237500J0D01*
G01*
G37*
G36*
G01*
X105045500Y-111983000D02*
X105520500Y-111983000D01*
G75*
G02*
X105758000Y-112220500I0J-237500D01*
G01*
X105758000Y-112795500D01*
G75*
G02*
X105520500Y-113033000I-237500J0D01*
G01*
X105045500Y-113033000D01*
G75*
G02*
X104808000Y-112795500I0J237500D01*
G01*
X104808000Y-112220500D01*
G75*
G02*
X105045500Y-111983000I237500J0D01*
G01*
G37*
G36*
G01*
X134157500Y-83965000D02*
X133812500Y-83965000D01*
G75*
G02*
X133665000Y-83817500I0J147500D01*
G01*
X133665000Y-83522500D01*
G75*
G02*
X133812500Y-83375000I147500J0D01*
G01*
X134157500Y-83375000D01*
G75*
G02*
X134305000Y-83522500I0J-147500D01*
G01*
X134305000Y-83817500D01*
G75*
G02*
X134157500Y-83965000I-147500J0D01*
G01*
G37*
G36*
G01*
X134157500Y-82995000D02*
X133812500Y-82995000D01*
G75*
G02*
X133665000Y-82847500I0J147500D01*
G01*
X133665000Y-82552500D01*
G75*
G02*
X133812500Y-82405000I147500J0D01*
G01*
X134157500Y-82405000D01*
G75*
G02*
X134305000Y-82552500I0J-147500D01*
G01*
X134305000Y-82847500D01*
G75*
G02*
X134157500Y-82995000I-147500J0D01*
G01*
G37*
G36*
G01*
X134955500Y-87439000D02*
X135300500Y-87439000D01*
G75*
G02*
X135448000Y-87586500I0J-147500D01*
G01*
X135448000Y-87881500D01*
G75*
G02*
X135300500Y-88029000I-147500J0D01*
G01*
X134955500Y-88029000D01*
G75*
G02*
X134808000Y-87881500I0J147500D01*
G01*
X134808000Y-87586500D01*
G75*
G02*
X134955500Y-87439000I147500J0D01*
G01*
G37*
G36*
G01*
X134955500Y-86469000D02*
X135300500Y-86469000D01*
G75*
G02*
X135448000Y-86616500I0J-147500D01*
G01*
X135448000Y-86911500D01*
G75*
G02*
X135300500Y-87059000I-147500J0D01*
G01*
X134955500Y-87059000D01*
G75*
G02*
X134808000Y-86911500I0J147500D01*
G01*
X134808000Y-86616500D01*
G75*
G02*
X134955500Y-86469000I147500J0D01*
G01*
G37*
G36*
G01*
X98343500Y-109238000D02*
X97998500Y-109238000D01*
G75*
G02*
X97851000Y-109090500I0J147500D01*
G01*
X97851000Y-108795500D01*
G75*
G02*
X97998500Y-108648000I147500J0D01*
G01*
X98343500Y-108648000D01*
G75*
G02*
X98491000Y-108795500I0J-147500D01*
G01*
X98491000Y-109090500D01*
G75*
G02*
X98343500Y-109238000I-147500J0D01*
G01*
G37*
G36*
G01*
X98343500Y-108268000D02*
X97998500Y-108268000D01*
G75*
G02*
X97851000Y-108120500I0J147500D01*
G01*
X97851000Y-107825500D01*
G75*
G02*
X97998500Y-107678000I147500J0D01*
G01*
X98343500Y-107678000D01*
G75*
G02*
X98491000Y-107825500I0J-147500D01*
G01*
X98491000Y-108120500D01*
G75*
G02*
X98343500Y-108268000I-147500J0D01*
G01*
G37*
G36*
G01*
X100121500Y-109215000D02*
X99776500Y-109215000D01*
G75*
G02*
X99629000Y-109067500I0J147500D01*
G01*
X99629000Y-108772500D01*
G75*
G02*
X99776500Y-108625000I147500J0D01*
G01*
X100121500Y-108625000D01*
G75*
G02*
X100269000Y-108772500I0J-147500D01*
G01*
X100269000Y-109067500D01*
G75*
G02*
X100121500Y-109215000I-147500J0D01*
G01*
G37*
G36*
G01*
X100121500Y-108245000D02*
X99776500Y-108245000D01*
G75*
G02*
X99629000Y-108097500I0J147500D01*
G01*
X99629000Y-107802500D01*
G75*
G02*
X99776500Y-107655000I147500J0D01*
G01*
X100121500Y-107655000D01*
G75*
G02*
X100269000Y-107802500I0J-147500D01*
G01*
X100269000Y-108097500D01*
G75*
G02*
X100121500Y-108245000I-147500J0D01*
G01*
G37*
G36*
G01*
X101899500Y-109215000D02*
X101554500Y-109215000D01*
G75*
G02*
X101407000Y-109067500I0J147500D01*
G01*
X101407000Y-108772500D01*
G75*
G02*
X101554500Y-108625000I147500J0D01*
G01*
X101899500Y-108625000D01*
G75*
G02*
X102047000Y-108772500I0J-147500D01*
G01*
X102047000Y-109067500D01*
G75*
G02*
X101899500Y-109215000I-147500J0D01*
G01*
G37*
G36*
G01*
X101899500Y-108245000D02*
X101554500Y-108245000D01*
G75*
G02*
X101407000Y-108097500I0J147500D01*
G01*
X101407000Y-107802500D01*
G75*
G02*
X101554500Y-107655000I147500J0D01*
G01*
X101899500Y-107655000D01*
G75*
G02*
X102047000Y-107802500I0J-147500D01*
G01*
X102047000Y-108097500D01*
G75*
G02*
X101899500Y-108245000I-147500J0D01*
G01*
G37*
G36*
G01*
X103677500Y-108268000D02*
X103332500Y-108268000D01*
G75*
G02*
X103185000Y-108120500I0J147500D01*
G01*
X103185000Y-107825500D01*
G75*
G02*
X103332500Y-107678000I147500J0D01*
G01*
X103677500Y-107678000D01*
G75*
G02*
X103825000Y-107825500I0J-147500D01*
G01*
X103825000Y-108120500D01*
G75*
G02*
X103677500Y-108268000I-147500J0D01*
G01*
G37*
G36*
G01*
X103677500Y-109238000D02*
X103332500Y-109238000D01*
G75*
G02*
X103185000Y-109090500I0J147500D01*
G01*
X103185000Y-108795500D01*
G75*
G02*
X103332500Y-108648000I147500J0D01*
G01*
X103677500Y-108648000D01*
G75*
G02*
X103825000Y-108795500I0J-147500D01*
G01*
X103825000Y-109090500D01*
G75*
G02*
X103677500Y-109238000I-147500J0D01*
G01*
G37*
G36*
G01*
X105455500Y-109238000D02*
X105110500Y-109238000D01*
G75*
G02*
X104963000Y-109090500I0J147500D01*
G01*
X104963000Y-108795500D01*
G75*
G02*
X105110500Y-108648000I147500J0D01*
G01*
X105455500Y-108648000D01*
G75*
G02*
X105603000Y-108795500I0J-147500D01*
G01*
X105603000Y-109090500D01*
G75*
G02*
X105455500Y-109238000I-147500J0D01*
G01*
G37*
G36*
G01*
X105455500Y-108268000D02*
X105110500Y-108268000D01*
G75*
G02*
X104963000Y-108120500I0J147500D01*
G01*
X104963000Y-107825500D01*
G75*
G02*
X105110500Y-107678000I147500J0D01*
G01*
X105455500Y-107678000D01*
G75*
G02*
X105603000Y-107825500I0J-147500D01*
G01*
X105603000Y-108120500D01*
G75*
G02*
X105455500Y-108268000I-147500J0D01*
G01*
G37*
G36*
G01*
X108404300Y-97924400D02*
X108404300Y-97579400D01*
G75*
G02*
X108551800Y-97431900I147500J0D01*
G01*
X108846800Y-97431900D01*
G75*
G02*
X108994300Y-97579400I0J-147500D01*
G01*
X108994300Y-97924400D01*
G75*
G02*
X108846800Y-98071900I-147500J0D01*
G01*
X108551800Y-98071900D01*
G75*
G02*
X108404300Y-97924400I0J147500D01*
G01*
G37*
G36*
G01*
X107434300Y-97924400D02*
X107434300Y-97579400D01*
G75*
G02*
X107581800Y-97431900I147500J0D01*
G01*
X107876800Y-97431900D01*
G75*
G02*
X108024300Y-97579400I0J-147500D01*
G01*
X108024300Y-97924400D01*
G75*
G02*
X107876800Y-98071900I-147500J0D01*
G01*
X107581800Y-98071900D01*
G75*
G02*
X107434300Y-97924400I0J147500D01*
G01*
G37*
G36*
G01*
X101579460Y-97884480D02*
X101234460Y-97884480D01*
G75*
G02*
X101086960Y-97736980I0J147500D01*
G01*
X101086960Y-97441980D01*
G75*
G02*
X101234460Y-97294480I147500J0D01*
G01*
X101579460Y-97294480D01*
G75*
G02*
X101726960Y-97441980I0J-147500D01*
G01*
X101726960Y-97736980D01*
G75*
G02*
X101579460Y-97884480I-147500J0D01*
G01*
G37*
G36*
G01*
X101579460Y-98854480D02*
X101234460Y-98854480D01*
G75*
G02*
X101086960Y-98706980I0J147500D01*
G01*
X101086960Y-98411980D01*
G75*
G02*
X101234460Y-98264480I147500J0D01*
G01*
X101579460Y-98264480D01*
G75*
G02*
X101726960Y-98411980I0J-147500D01*
G01*
X101726960Y-98706980D01*
G75*
G02*
X101579460Y-98854480I-147500J0D01*
G01*
G37*
G36*
G01*
X99791300Y-96177320D02*
X99446300Y-96177320D01*
G75*
G02*
X99298800Y-96029820I0J147500D01*
G01*
X99298800Y-95734820D01*
G75*
G02*
X99446300Y-95587320I147500J0D01*
G01*
X99791300Y-95587320D01*
G75*
G02*
X99938800Y-95734820I0J-147500D01*
G01*
X99938800Y-96029820D01*
G75*
G02*
X99791300Y-96177320I-147500J0D01*
G01*
G37*
G36*
G01*
X99791300Y-95207320D02*
X99446300Y-95207320D01*
G75*
G02*
X99298800Y-95059820I0J147500D01*
G01*
X99298800Y-94764820D01*
G75*
G02*
X99446300Y-94617320I147500J0D01*
G01*
X99791300Y-94617320D01*
G75*
G02*
X99938800Y-94764820I0J-147500D01*
G01*
X99938800Y-95059820D01*
G75*
G02*
X99791300Y-95207320I-147500J0D01*
G01*
G37*
G36*
G01*
X131077200Y-84358700D02*
X131077200Y-84703700D01*
G75*
G02*
X130929700Y-84851200I-147500J0D01*
G01*
X130634700Y-84851200D01*
G75*
G02*
X130487200Y-84703700I0J147500D01*
G01*
X130487200Y-84358700D01*
G75*
G02*
X130634700Y-84211200I147500J0D01*
G01*
X130929700Y-84211200D01*
G75*
G02*
X131077200Y-84358700I0J-147500D01*
G01*
G37*
G36*
G01*
X132047200Y-84358700D02*
X132047200Y-84703700D01*
G75*
G02*
X131899700Y-84851200I-147500J0D01*
G01*
X131604700Y-84851200D01*
G75*
G02*
X131457200Y-84703700I0J147500D01*
G01*
X131457200Y-84358700D01*
G75*
G02*
X131604700Y-84211200I147500J0D01*
G01*
X131899700Y-84211200D01*
G75*
G02*
X132047200Y-84358700I0J-147500D01*
G01*
G37*
G36*
G01*
X132479000Y-90378500D02*
X132479000Y-90723500D01*
G75*
G02*
X132331500Y-90871000I-147500J0D01*
G01*
X132036500Y-90871000D01*
G75*
G02*
X131889000Y-90723500I0J147500D01*
G01*
X131889000Y-90378500D01*
G75*
G02*
X132036500Y-90231000I147500J0D01*
G01*
X132331500Y-90231000D01*
G75*
G02*
X132479000Y-90378500I0J-147500D01*
G01*
G37*
G36*
G01*
X131509000Y-90378500D02*
X131509000Y-90723500D01*
G75*
G02*
X131361500Y-90871000I-147500J0D01*
G01*
X131066500Y-90871000D01*
G75*
G02*
X130919000Y-90723500I0J147500D01*
G01*
X130919000Y-90378500D01*
G75*
G02*
X131066500Y-90231000I147500J0D01*
G01*
X131361500Y-90231000D01*
G75*
G02*
X131509000Y-90378500I0J-147500D01*
G01*
G37*
G36*
G01*
X99740500Y-88768000D02*
X99395500Y-88768000D01*
G75*
G02*
X99248000Y-88620500I0J147500D01*
G01*
X99248000Y-88325500D01*
G75*
G02*
X99395500Y-88178000I147500J0D01*
G01*
X99740500Y-88178000D01*
G75*
G02*
X99888000Y-88325500I0J-147500D01*
G01*
X99888000Y-88620500D01*
G75*
G02*
X99740500Y-88768000I-147500J0D01*
G01*
G37*
G36*
G01*
X99740500Y-87798000D02*
X99395500Y-87798000D01*
G75*
G02*
X99248000Y-87650500I0J147500D01*
G01*
X99248000Y-87355500D01*
G75*
G02*
X99395500Y-87208000I147500J0D01*
G01*
X99740500Y-87208000D01*
G75*
G02*
X99888000Y-87355500I0J-147500D01*
G01*
X99888000Y-87650500D01*
G75*
G02*
X99740500Y-87798000I-147500J0D01*
G01*
G37*
G36*
G01*
X99476200Y-82214500D02*
X99476200Y-81869500D01*
G75*
G02*
X99623700Y-81722000I147500J0D01*
G01*
X99918700Y-81722000D01*
G75*
G02*
X100066200Y-81869500I0J-147500D01*
G01*
X100066200Y-82214500D01*
G75*
G02*
X99918700Y-82362000I-147500J0D01*
G01*
X99623700Y-82362000D01*
G75*
G02*
X99476200Y-82214500I0J147500D01*
G01*
G37*
G36*
G01*
X98506200Y-82214500D02*
X98506200Y-81869500D01*
G75*
G02*
X98653700Y-81722000I147500J0D01*
G01*
X98948700Y-81722000D01*
G75*
G02*
X99096200Y-81869500I0J-147500D01*
G01*
X99096200Y-82214500D01*
G75*
G02*
X98948700Y-82362000I-147500J0D01*
G01*
X98653700Y-82362000D01*
G75*
G02*
X98506200Y-82214500I0J147500D01*
G01*
G37*
G36*
G01*
X112656400Y-110546100D02*
X112311400Y-110546100D01*
G75*
G02*
X112163900Y-110398600I0J147500D01*
G01*
X112163900Y-110103600D01*
G75*
G02*
X112311400Y-109956100I147500J0D01*
G01*
X112656400Y-109956100D01*
G75*
G02*
X112803900Y-110103600I0J-147500D01*
G01*
X112803900Y-110398600D01*
G75*
G02*
X112656400Y-110546100I-147500J0D01*
G01*
G37*
G36*
G01*
X112656400Y-109576100D02*
X112311400Y-109576100D01*
G75*
G02*
X112163900Y-109428600I0J147500D01*
G01*
X112163900Y-109133600D01*
G75*
G02*
X112311400Y-108986100I147500J0D01*
G01*
X112656400Y-108986100D01*
G75*
G02*
X112803900Y-109133600I0J-147500D01*
G01*
X112803900Y-109428600D01*
G75*
G02*
X112656400Y-109576100I-147500J0D01*
G01*
G37*
G36*
G01*
X123657000Y-81960500D02*
X123657000Y-81615500D01*
G75*
G02*
X123804500Y-81468000I147500J0D01*
G01*
X124099500Y-81468000D01*
G75*
G02*
X124247000Y-81615500I0J-147500D01*
G01*
X124247000Y-81960500D01*
G75*
G02*
X124099500Y-82108000I-147500J0D01*
G01*
X123804500Y-82108000D01*
G75*
G02*
X123657000Y-81960500I0J147500D01*
G01*
G37*
G36*
G01*
X124627000Y-81960500D02*
X124627000Y-81615500D01*
G75*
G02*
X124774500Y-81468000I147500J0D01*
G01*
X125069500Y-81468000D01*
G75*
G02*
X125217000Y-81615500I0J-147500D01*
G01*
X125217000Y-81960500D01*
G75*
G02*
X125069500Y-82108000I-147500J0D01*
G01*
X124774500Y-82108000D01*
G75*
G02*
X124627000Y-81960500I0J147500D01*
G01*
G37*
G36*
G01*
X102809400Y-89337100D02*
X102809400Y-89682100D01*
G75*
G02*
X102661900Y-89829600I-147500J0D01*
G01*
X102366900Y-89829600D01*
G75*
G02*
X102219400Y-89682100I0J147500D01*
G01*
X102219400Y-89337100D01*
G75*
G02*
X102366900Y-89189600I147500J0D01*
G01*
X102661900Y-89189600D01*
G75*
G02*
X102809400Y-89337100I0J-147500D01*
G01*
G37*
G36*
G01*
X101839400Y-89337100D02*
X101839400Y-89682100D01*
G75*
G02*
X101691900Y-89829600I-147500J0D01*
G01*
X101396900Y-89829600D01*
G75*
G02*
X101249400Y-89682100I0J147500D01*
G01*
X101249400Y-89337100D01*
G75*
G02*
X101396900Y-89189600I147500J0D01*
G01*
X101691900Y-89189600D01*
G75*
G02*
X101839400Y-89337100I0J-147500D01*
G01*
G37*
G36*
G01*
X138714700Y-107650200D02*
X139059700Y-107650200D01*
G75*
G02*
X139207200Y-107797700I0J-147500D01*
G01*
X139207200Y-108092700D01*
G75*
G02*
X139059700Y-108240200I-147500J0D01*
G01*
X138714700Y-108240200D01*
G75*
G02*
X138567200Y-108092700I0J147500D01*
G01*
X138567200Y-107797700D01*
G75*
G02*
X138714700Y-107650200I147500J0D01*
G01*
G37*
G36*
G01*
X138714700Y-108620200D02*
X139059700Y-108620200D01*
G75*
G02*
X139207200Y-108767700I0J-147500D01*
G01*
X139207200Y-109062700D01*
G75*
G02*
X139059700Y-109210200I-147500J0D01*
G01*
X138714700Y-109210200D01*
G75*
G02*
X138567200Y-109062700I0J147500D01*
G01*
X138567200Y-108767700D01*
G75*
G02*
X138714700Y-108620200I147500J0D01*
G01*
G37*
G36*
G01*
X130855500Y-94506000D02*
X130510500Y-94506000D01*
G75*
G02*
X130363000Y-94358500I0J147500D01*
G01*
X130363000Y-94063500D01*
G75*
G02*
X130510500Y-93916000I147500J0D01*
G01*
X130855500Y-93916000D01*
G75*
G02*
X131003000Y-94063500I0J-147500D01*
G01*
X131003000Y-94358500D01*
G75*
G02*
X130855500Y-94506000I-147500J0D01*
G01*
G37*
G36*
G01*
X130855500Y-93536000D02*
X130510500Y-93536000D01*
G75*
G02*
X130363000Y-93388500I0J147500D01*
G01*
X130363000Y-93093500D01*
G75*
G02*
X130510500Y-92946000I147500J0D01*
G01*
X130855500Y-92946000D01*
G75*
G02*
X131003000Y-93093500I0J-147500D01*
G01*
X131003000Y-93388500D01*
G75*
G02*
X130855500Y-93536000I-147500J0D01*
G01*
G37*
G36*
G01*
X129712500Y-94506000D02*
X129367500Y-94506000D01*
G75*
G02*
X129220000Y-94358500I0J147500D01*
G01*
X129220000Y-94063500D01*
G75*
G02*
X129367500Y-93916000I147500J0D01*
G01*
X129712500Y-93916000D01*
G75*
G02*
X129860000Y-94063500I0J-147500D01*
G01*
X129860000Y-94358500D01*
G75*
G02*
X129712500Y-94506000I-147500J0D01*
G01*
G37*
G36*
G01*
X129712500Y-93536000D02*
X129367500Y-93536000D01*
G75*
G02*
X129220000Y-93388500I0J147500D01*
G01*
X129220000Y-93093500D01*
G75*
G02*
X129367500Y-92946000I147500J0D01*
G01*
X129712500Y-92946000D01*
G75*
G02*
X129860000Y-93093500I0J-147500D01*
G01*
X129860000Y-93388500D01*
G75*
G02*
X129712500Y-93536000I-147500J0D01*
G01*
G37*
G36*
G01*
X128569500Y-93536000D02*
X128224500Y-93536000D01*
G75*
G02*
X128077000Y-93388500I0J147500D01*
G01*
X128077000Y-93093500D01*
G75*
G02*
X128224500Y-92946000I147500J0D01*
G01*
X128569500Y-92946000D01*
G75*
G02*
X128717000Y-93093500I0J-147500D01*
G01*
X128717000Y-93388500D01*
G75*
G02*
X128569500Y-93536000I-147500J0D01*
G01*
G37*
G36*
G01*
X128569500Y-94506000D02*
X128224500Y-94506000D01*
G75*
G02*
X128077000Y-94358500I0J147500D01*
G01*
X128077000Y-94063500D01*
G75*
G02*
X128224500Y-93916000I147500J0D01*
G01*
X128569500Y-93916000D01*
G75*
G02*
X128717000Y-94063500I0J-147500D01*
G01*
X128717000Y-94358500D01*
G75*
G02*
X128569500Y-94506000I-147500J0D01*
G01*
G37*
G36*
G01*
X127426500Y-93536000D02*
X127081500Y-93536000D01*
G75*
G02*
X126934000Y-93388500I0J147500D01*
G01*
X126934000Y-93093500D01*
G75*
G02*
X127081500Y-92946000I147500J0D01*
G01*
X127426500Y-92946000D01*
G75*
G02*
X127574000Y-93093500I0J-147500D01*
G01*
X127574000Y-93388500D01*
G75*
G02*
X127426500Y-93536000I-147500J0D01*
G01*
G37*
G36*
G01*
X127426500Y-94506000D02*
X127081500Y-94506000D01*
G75*
G02*
X126934000Y-94358500I0J147500D01*
G01*
X126934000Y-94063500D01*
G75*
G02*
X127081500Y-93916000I147500J0D01*
G01*
X127426500Y-93916000D01*
G75*
G02*
X127574000Y-94063500I0J-147500D01*
G01*
X127574000Y-94358500D01*
G75*
G02*
X127426500Y-94506000I-147500J0D01*
G01*
G37*
G36*
G01*
X125140500Y-94506000D02*
X124795500Y-94506000D01*
G75*
G02*
X124648000Y-94358500I0J147500D01*
G01*
X124648000Y-94063500D01*
G75*
G02*
X124795500Y-93916000I147500J0D01*
G01*
X125140500Y-93916000D01*
G75*
G02*
X125288000Y-94063500I0J-147500D01*
G01*
X125288000Y-94358500D01*
G75*
G02*
X125140500Y-94506000I-147500J0D01*
G01*
G37*
G36*
G01*
X125140500Y-93536000D02*
X124795500Y-93536000D01*
G75*
G02*
X124648000Y-93388500I0J147500D01*
G01*
X124648000Y-93093500D01*
G75*
G02*
X124795500Y-92946000I147500J0D01*
G01*
X125140500Y-92946000D01*
G75*
G02*
X125288000Y-93093500I0J-147500D01*
G01*
X125288000Y-93388500D01*
G75*
G02*
X125140500Y-93536000I-147500J0D01*
G01*
G37*
D23*
X112098000Y-72138500D03*
X112098000Y-74038500D03*
X109898000Y-74038500D03*
X109898000Y-73088500D03*
X109898000Y-72138500D03*
D24*
X106043500Y-77478000D03*
X106043500Y-78478000D03*
X107443500Y-77478000D03*
X106043500Y-77978000D03*
X107443500Y-78478000D03*
D18*
X103276400Y-73931600D03*
X102326400Y-73931600D03*
X101376400Y-73931600D03*
X101376400Y-76131600D03*
X103276400Y-76131600D03*
G36*
G01*
X104020000Y-94889000D02*
X104020000Y-95219000D01*
G75*
G02*
X103855000Y-95384000I-165000J0D01*
G01*
X103525000Y-95384000D01*
G75*
G02*
X103360000Y-95219000I0J165000D01*
G01*
X103360000Y-94889000D01*
G75*
G02*
X103525000Y-94724000I165000J0D01*
G01*
X103855000Y-94724000D01*
G75*
G02*
X104020000Y-94889000I0J-165000D01*
G01*
G37*
G36*
G01*
X104020000Y-94069000D02*
X104020000Y-94399000D01*
G75*
G02*
X103855000Y-94564000I-165000J0D01*
G01*
X103525000Y-94564000D01*
G75*
G02*
X103360000Y-94399000I0J165000D01*
G01*
X103360000Y-94069000D01*
G75*
G02*
X103525000Y-93904000I165000J0D01*
G01*
X103855000Y-93904000D01*
G75*
G02*
X104020000Y-94069000I0J-165000D01*
G01*
G37*
G36*
G01*
X104020000Y-93249000D02*
X104020000Y-93579000D01*
G75*
G02*
X103855000Y-93744000I-165000J0D01*
G01*
X103525000Y-93744000D01*
G75*
G02*
X103360000Y-93579000I0J165000D01*
G01*
X103360000Y-93249000D01*
G75*
G02*
X103525000Y-93084000I165000J0D01*
G01*
X103855000Y-93084000D01*
G75*
G02*
X104020000Y-93249000I0J-165000D01*
G01*
G37*
G36*
G01*
X103200000Y-94889000D02*
X103200000Y-95219000D01*
G75*
G02*
X103035000Y-95384000I-165000J0D01*
G01*
X102705000Y-95384000D01*
G75*
G02*
X102540000Y-95219000I0J165000D01*
G01*
X102540000Y-94889000D01*
G75*
G02*
X102705000Y-94724000I165000J0D01*
G01*
X103035000Y-94724000D01*
G75*
G02*
X103200000Y-94889000I0J-165000D01*
G01*
G37*
G36*
G01*
X103200000Y-94069000D02*
X103200000Y-94399000D01*
G75*
G02*
X103035000Y-94564000I-165000J0D01*
G01*
X102705000Y-94564000D01*
G75*
G02*
X102540000Y-94399000I0J165000D01*
G01*
X102540000Y-94069000D01*
G75*
G02*
X102705000Y-93904000I165000J0D01*
G01*
X103035000Y-93904000D01*
G75*
G02*
X103200000Y-94069000I0J-165000D01*
G01*
G37*
G36*
G01*
X103200000Y-93249000D02*
X103200000Y-93579000D01*
G75*
G02*
X103035000Y-93744000I-165000J0D01*
G01*
X102705000Y-93744000D01*
G75*
G02*
X102540000Y-93579000I0J165000D01*
G01*
X102540000Y-93249000D01*
G75*
G02*
X102705000Y-93084000I165000J0D01*
G01*
X103035000Y-93084000D01*
G75*
G02*
X103200000Y-93249000I0J-165000D01*
G01*
G37*
G36*
G01*
X102380000Y-94889000D02*
X102380000Y-95219000D01*
G75*
G02*
X102215000Y-95384000I-165000J0D01*
G01*
X101885000Y-95384000D01*
G75*
G02*
X101720000Y-95219000I0J165000D01*
G01*
X101720000Y-94889000D01*
G75*
G02*
X101885000Y-94724000I165000J0D01*
G01*
X102215000Y-94724000D01*
G75*
G02*
X102380000Y-94889000I0J-165000D01*
G01*
G37*
G36*
G01*
X102380000Y-94069000D02*
X102380000Y-94399000D01*
G75*
G02*
X102215000Y-94564000I-165000J0D01*
G01*
X101885000Y-94564000D01*
G75*
G02*
X101720000Y-94399000I0J165000D01*
G01*
X101720000Y-94069000D01*
G75*
G02*
X101885000Y-93904000I165000J0D01*
G01*
X102215000Y-93904000D01*
G75*
G02*
X102380000Y-94069000I0J-165000D01*
G01*
G37*
G36*
G01*
X102380000Y-93249000D02*
X102380000Y-93579000D01*
G75*
G02*
X102215000Y-93744000I-165000J0D01*
G01*
X101885000Y-93744000D01*
G75*
G02*
X101720000Y-93579000I0J165000D01*
G01*
X101720000Y-93249000D01*
G75*
G02*
X101885000Y-93084000I165000J0D01*
G01*
X102215000Y-93084000D01*
G75*
G02*
X102380000Y-93249000I0J-165000D01*
G01*
G37*
G36*
G01*
X105245000Y-95421500D02*
X105245000Y-95546500D01*
G75*
G02*
X105182500Y-95609000I-62500J0D01*
G01*
X104532500Y-95609000D01*
G75*
G02*
X104470000Y-95546500I0J62500D01*
G01*
X104470000Y-95421500D01*
G75*
G02*
X104532500Y-95359000I62500J0D01*
G01*
X105182500Y-95359000D01*
G75*
G02*
X105245000Y-95421500I0J-62500D01*
G01*
G37*
G36*
G01*
X105245000Y-94921500D02*
X105245000Y-95046500D01*
G75*
G02*
X105182500Y-95109000I-62500J0D01*
G01*
X104532500Y-95109000D01*
G75*
G02*
X104470000Y-95046500I0J62500D01*
G01*
X104470000Y-94921500D01*
G75*
G02*
X104532500Y-94859000I62500J0D01*
G01*
X105182500Y-94859000D01*
G75*
G02*
X105245000Y-94921500I0J-62500D01*
G01*
G37*
G36*
G01*
X105245000Y-94421500D02*
X105245000Y-94546500D01*
G75*
G02*
X105182500Y-94609000I-62500J0D01*
G01*
X104532500Y-94609000D01*
G75*
G02*
X104470000Y-94546500I0J62500D01*
G01*
X104470000Y-94421500D01*
G75*
G02*
X104532500Y-94359000I62500J0D01*
G01*
X105182500Y-94359000D01*
G75*
G02*
X105245000Y-94421500I0J-62500D01*
G01*
G37*
G36*
G01*
X105245000Y-93921500D02*
X105245000Y-94046500D01*
G75*
G02*
X105182500Y-94109000I-62500J0D01*
G01*
X104532500Y-94109000D01*
G75*
G02*
X104470000Y-94046500I0J62500D01*
G01*
X104470000Y-93921500D01*
G75*
G02*
X104532500Y-93859000I62500J0D01*
G01*
X105182500Y-93859000D01*
G75*
G02*
X105245000Y-93921500I0J-62500D01*
G01*
G37*
G36*
G01*
X105245000Y-93421500D02*
X105245000Y-93546500D01*
G75*
G02*
X105182500Y-93609000I-62500J0D01*
G01*
X104532500Y-93609000D01*
G75*
G02*
X104470000Y-93546500I0J62500D01*
G01*
X104470000Y-93421500D01*
G75*
G02*
X104532500Y-93359000I62500J0D01*
G01*
X105182500Y-93359000D01*
G75*
G02*
X105245000Y-93421500I0J-62500D01*
G01*
G37*
G36*
G01*
X105245000Y-92921500D02*
X105245000Y-93046500D01*
G75*
G02*
X105182500Y-93109000I-62500J0D01*
G01*
X104532500Y-93109000D01*
G75*
G02*
X104470000Y-93046500I0J62500D01*
G01*
X104470000Y-92921500D01*
G75*
G02*
X104532500Y-92859000I62500J0D01*
G01*
X105182500Y-92859000D01*
G75*
G02*
X105245000Y-92921500I0J-62500D01*
G01*
G37*
G36*
G01*
X104245000Y-91921500D02*
X104245000Y-92571500D01*
G75*
G02*
X104182500Y-92634000I-62500J0D01*
G01*
X104057500Y-92634000D01*
G75*
G02*
X103995000Y-92571500I0J62500D01*
G01*
X103995000Y-91921500D01*
G75*
G02*
X104057500Y-91859000I62500J0D01*
G01*
X104182500Y-91859000D01*
G75*
G02*
X104245000Y-91921500I0J-62500D01*
G01*
G37*
G36*
G01*
X103745000Y-91921500D02*
X103745000Y-92571500D01*
G75*
G02*
X103682500Y-92634000I-62500J0D01*
G01*
X103557500Y-92634000D01*
G75*
G02*
X103495000Y-92571500I0J62500D01*
G01*
X103495000Y-91921500D01*
G75*
G02*
X103557500Y-91859000I62500J0D01*
G01*
X103682500Y-91859000D01*
G75*
G02*
X103745000Y-91921500I0J-62500D01*
G01*
G37*
G36*
G01*
X103245000Y-91921500D02*
X103245000Y-92571500D01*
G75*
G02*
X103182500Y-92634000I-62500J0D01*
G01*
X103057500Y-92634000D01*
G75*
G02*
X102995000Y-92571500I0J62500D01*
G01*
X102995000Y-91921500D01*
G75*
G02*
X103057500Y-91859000I62500J0D01*
G01*
X103182500Y-91859000D01*
G75*
G02*
X103245000Y-91921500I0J-62500D01*
G01*
G37*
G36*
G01*
X102745000Y-91921500D02*
X102745000Y-92571500D01*
G75*
G02*
X102682500Y-92634000I-62500J0D01*
G01*
X102557500Y-92634000D01*
G75*
G02*
X102495000Y-92571500I0J62500D01*
G01*
X102495000Y-91921500D01*
G75*
G02*
X102557500Y-91859000I62500J0D01*
G01*
X102682500Y-91859000D01*
G75*
G02*
X102745000Y-91921500I0J-62500D01*
G01*
G37*
G36*
G01*
X102245000Y-91921500D02*
X102245000Y-92571500D01*
G75*
G02*
X102182500Y-92634000I-62500J0D01*
G01*
X102057500Y-92634000D01*
G75*
G02*
X101995000Y-92571500I0J62500D01*
G01*
X101995000Y-91921500D01*
G75*
G02*
X102057500Y-91859000I62500J0D01*
G01*
X102182500Y-91859000D01*
G75*
G02*
X102245000Y-91921500I0J-62500D01*
G01*
G37*
G36*
G01*
X101745000Y-91921500D02*
X101745000Y-92571500D01*
G75*
G02*
X101682500Y-92634000I-62500J0D01*
G01*
X101557500Y-92634000D01*
G75*
G02*
X101495000Y-92571500I0J62500D01*
G01*
X101495000Y-91921500D01*
G75*
G02*
X101557500Y-91859000I62500J0D01*
G01*
X101682500Y-91859000D01*
G75*
G02*
X101745000Y-91921500I0J-62500D01*
G01*
G37*
G36*
G01*
X101270000Y-92921500D02*
X101270000Y-93046500D01*
G75*
G02*
X101207500Y-93109000I-62500J0D01*
G01*
X100557500Y-93109000D01*
G75*
G02*
X100495000Y-93046500I0J62500D01*
G01*
X100495000Y-92921500D01*
G75*
G02*
X100557500Y-92859000I62500J0D01*
G01*
X101207500Y-92859000D01*
G75*
G02*
X101270000Y-92921500I0J-62500D01*
G01*
G37*
G36*
G01*
X101270000Y-93421500D02*
X101270000Y-93546500D01*
G75*
G02*
X101207500Y-93609000I-62500J0D01*
G01*
X100557500Y-93609000D01*
G75*
G02*
X100495000Y-93546500I0J62500D01*
G01*
X100495000Y-93421500D01*
G75*
G02*
X100557500Y-93359000I62500J0D01*
G01*
X101207500Y-93359000D01*
G75*
G02*
X101270000Y-93421500I0J-62500D01*
G01*
G37*
G36*
G01*
X101270000Y-93921500D02*
X101270000Y-94046500D01*
G75*
G02*
X101207500Y-94109000I-62500J0D01*
G01*
X100557500Y-94109000D01*
G75*
G02*
X100495000Y-94046500I0J62500D01*
G01*
X100495000Y-93921500D01*
G75*
G02*
X100557500Y-93859000I62500J0D01*
G01*
X101207500Y-93859000D01*
G75*
G02*
X101270000Y-93921500I0J-62500D01*
G01*
G37*
G36*
G01*
X101270000Y-94421500D02*
X101270000Y-94546500D01*
G75*
G02*
X101207500Y-94609000I-62500J0D01*
G01*
X100557500Y-94609000D01*
G75*
G02*
X100495000Y-94546500I0J62500D01*
G01*
X100495000Y-94421500D01*
G75*
G02*
X100557500Y-94359000I62500J0D01*
G01*
X101207500Y-94359000D01*
G75*
G02*
X101270000Y-94421500I0J-62500D01*
G01*
G37*
G36*
G01*
X101270000Y-94921500D02*
X101270000Y-95046500D01*
G75*
G02*
X101207500Y-95109000I-62500J0D01*
G01*
X100557500Y-95109000D01*
G75*
G02*
X100495000Y-95046500I0J62500D01*
G01*
X100495000Y-94921500D01*
G75*
G02*
X100557500Y-94859000I62500J0D01*
G01*
X101207500Y-94859000D01*
G75*
G02*
X101270000Y-94921500I0J-62500D01*
G01*
G37*
G36*
G01*
X101270000Y-95421500D02*
X101270000Y-95546500D01*
G75*
G02*
X101207500Y-95609000I-62500J0D01*
G01*
X100557500Y-95609000D01*
G75*
G02*
X100495000Y-95546500I0J62500D01*
G01*
X100495000Y-95421500D01*
G75*
G02*
X100557500Y-95359000I62500J0D01*
G01*
X101207500Y-95359000D01*
G75*
G02*
X101270000Y-95421500I0J-62500D01*
G01*
G37*
G36*
G01*
X101745000Y-95896500D02*
X101745000Y-96546500D01*
G75*
G02*
X101682500Y-96609000I-62500J0D01*
G01*
X101557500Y-96609000D01*
G75*
G02*
X101495000Y-96546500I0J62500D01*
G01*
X101495000Y-95896500D01*
G75*
G02*
X101557500Y-95834000I62500J0D01*
G01*
X101682500Y-95834000D01*
G75*
G02*
X101745000Y-95896500I0J-62500D01*
G01*
G37*
G36*
G01*
X102245000Y-95896500D02*
X102245000Y-96546500D01*
G75*
G02*
X102182500Y-96609000I-62500J0D01*
G01*
X102057500Y-96609000D01*
G75*
G02*
X101995000Y-96546500I0J62500D01*
G01*
X101995000Y-95896500D01*
G75*
G02*
X102057500Y-95834000I62500J0D01*
G01*
X102182500Y-95834000D01*
G75*
G02*
X102245000Y-95896500I0J-62500D01*
G01*
G37*
G36*
G01*
X102745000Y-95896500D02*
X102745000Y-96546500D01*
G75*
G02*
X102682500Y-96609000I-62500J0D01*
G01*
X102557500Y-96609000D01*
G75*
G02*
X102495000Y-96546500I0J62500D01*
G01*
X102495000Y-95896500D01*
G75*
G02*
X102557500Y-95834000I62500J0D01*
G01*
X102682500Y-95834000D01*
G75*
G02*
X102745000Y-95896500I0J-62500D01*
G01*
G37*
G36*
G01*
X103245000Y-95896500D02*
X103245000Y-96546500D01*
G75*
G02*
X103182500Y-96609000I-62500J0D01*
G01*
X103057500Y-96609000D01*
G75*
G02*
X102995000Y-96546500I0J62500D01*
G01*
X102995000Y-95896500D01*
G75*
G02*
X103057500Y-95834000I62500J0D01*
G01*
X103182500Y-95834000D01*
G75*
G02*
X103245000Y-95896500I0J-62500D01*
G01*
G37*
G36*
G01*
X103745000Y-95896500D02*
X103745000Y-96546500D01*
G75*
G02*
X103682500Y-96609000I-62500J0D01*
G01*
X103557500Y-96609000D01*
G75*
G02*
X103495000Y-96546500I0J62500D01*
G01*
X103495000Y-95896500D01*
G75*
G02*
X103557500Y-95834000I62500J0D01*
G01*
X103682500Y-95834000D01*
G75*
G02*
X103745000Y-95896500I0J-62500D01*
G01*
G37*
G36*
G01*
X104245000Y-95896500D02*
X104245000Y-96546500D01*
G75*
G02*
X104182500Y-96609000I-62500J0D01*
G01*
X104057500Y-96609000D01*
G75*
G02*
X103995000Y-96546500I0J62500D01*
G01*
X103995000Y-95896500D01*
G75*
G02*
X104057500Y-95834000I62500J0D01*
G01*
X104182500Y-95834000D01*
G75*
G02*
X104245000Y-95896500I0J-62500D01*
G01*
G37*
G36*
G01*
X126069500Y-84951500D02*
X126069500Y-84301500D01*
G75*
G02*
X126132000Y-84239000I62500J0D01*
G01*
X126257000Y-84239000D01*
G75*
G02*
X126319500Y-84301500I0J-62500D01*
G01*
X126319500Y-84951500D01*
G75*
G02*
X126257000Y-85014000I-62500J0D01*
G01*
X126132000Y-85014000D01*
G75*
G02*
X126069500Y-84951500I0J62500D01*
G01*
G37*
G36*
G01*
X126569500Y-84951500D02*
X126569500Y-84301500D01*
G75*
G02*
X126632000Y-84239000I62500J0D01*
G01*
X126757000Y-84239000D01*
G75*
G02*
X126819500Y-84301500I0J-62500D01*
G01*
X126819500Y-84951500D01*
G75*
G02*
X126757000Y-85014000I-62500J0D01*
G01*
X126632000Y-85014000D01*
G75*
G02*
X126569500Y-84951500I0J62500D01*
G01*
G37*
G36*
G01*
X127069500Y-84951500D02*
X127069500Y-84301500D01*
G75*
G02*
X127132000Y-84239000I62500J0D01*
G01*
X127257000Y-84239000D01*
G75*
G02*
X127319500Y-84301500I0J-62500D01*
G01*
X127319500Y-84951500D01*
G75*
G02*
X127257000Y-85014000I-62500J0D01*
G01*
X127132000Y-85014000D01*
G75*
G02*
X127069500Y-84951500I0J62500D01*
G01*
G37*
G36*
G01*
X127569500Y-84951500D02*
X127569500Y-84301500D01*
G75*
G02*
X127632000Y-84239000I62500J0D01*
G01*
X127757000Y-84239000D01*
G75*
G02*
X127819500Y-84301500I0J-62500D01*
G01*
X127819500Y-84951500D01*
G75*
G02*
X127757000Y-85014000I-62500J0D01*
G01*
X127632000Y-85014000D01*
G75*
G02*
X127569500Y-84951500I0J62500D01*
G01*
G37*
G36*
G01*
X128069500Y-84951500D02*
X128069500Y-84301500D01*
G75*
G02*
X128132000Y-84239000I62500J0D01*
G01*
X128257000Y-84239000D01*
G75*
G02*
X128319500Y-84301500I0J-62500D01*
G01*
X128319500Y-84951500D01*
G75*
G02*
X128257000Y-85014000I-62500J0D01*
G01*
X128132000Y-85014000D01*
G75*
G02*
X128069500Y-84951500I0J62500D01*
G01*
G37*
G36*
G01*
X128569500Y-84951500D02*
X128569500Y-84301500D01*
G75*
G02*
X128632000Y-84239000I62500J0D01*
G01*
X128757000Y-84239000D01*
G75*
G02*
X128819500Y-84301500I0J-62500D01*
G01*
X128819500Y-84951500D01*
G75*
G02*
X128757000Y-85014000I-62500J0D01*
G01*
X128632000Y-85014000D01*
G75*
G02*
X128569500Y-84951500I0J62500D01*
G01*
G37*
G36*
G01*
X129044500Y-85426500D02*
X129044500Y-85301500D01*
G75*
G02*
X129107000Y-85239000I62500J0D01*
G01*
X129757000Y-85239000D01*
G75*
G02*
X129819500Y-85301500I0J-62500D01*
G01*
X129819500Y-85426500D01*
G75*
G02*
X129757000Y-85489000I-62500J0D01*
G01*
X129107000Y-85489000D01*
G75*
G02*
X129044500Y-85426500I0J62500D01*
G01*
G37*
G36*
G01*
X129044500Y-85926500D02*
X129044500Y-85801500D01*
G75*
G02*
X129107000Y-85739000I62500J0D01*
G01*
X129757000Y-85739000D01*
G75*
G02*
X129819500Y-85801500I0J-62500D01*
G01*
X129819500Y-85926500D01*
G75*
G02*
X129757000Y-85989000I-62500J0D01*
G01*
X129107000Y-85989000D01*
G75*
G02*
X129044500Y-85926500I0J62500D01*
G01*
G37*
G36*
G01*
X129044500Y-86426500D02*
X129044500Y-86301500D01*
G75*
G02*
X129107000Y-86239000I62500J0D01*
G01*
X129757000Y-86239000D01*
G75*
G02*
X129819500Y-86301500I0J-62500D01*
G01*
X129819500Y-86426500D01*
G75*
G02*
X129757000Y-86489000I-62500J0D01*
G01*
X129107000Y-86489000D01*
G75*
G02*
X129044500Y-86426500I0J62500D01*
G01*
G37*
G36*
G01*
X129044500Y-86926500D02*
X129044500Y-86801500D01*
G75*
G02*
X129107000Y-86739000I62500J0D01*
G01*
X129757000Y-86739000D01*
G75*
G02*
X129819500Y-86801500I0J-62500D01*
G01*
X129819500Y-86926500D01*
G75*
G02*
X129757000Y-86989000I-62500J0D01*
G01*
X129107000Y-86989000D01*
G75*
G02*
X129044500Y-86926500I0J62500D01*
G01*
G37*
G36*
G01*
X129044500Y-87426500D02*
X129044500Y-87301500D01*
G75*
G02*
X129107000Y-87239000I62500J0D01*
G01*
X129757000Y-87239000D01*
G75*
G02*
X129819500Y-87301500I0J-62500D01*
G01*
X129819500Y-87426500D01*
G75*
G02*
X129757000Y-87489000I-62500J0D01*
G01*
X129107000Y-87489000D01*
G75*
G02*
X129044500Y-87426500I0J62500D01*
G01*
G37*
G36*
G01*
X129044500Y-87926500D02*
X129044500Y-87801500D01*
G75*
G02*
X129107000Y-87739000I62500J0D01*
G01*
X129757000Y-87739000D01*
G75*
G02*
X129819500Y-87801500I0J-62500D01*
G01*
X129819500Y-87926500D01*
G75*
G02*
X129757000Y-87989000I-62500J0D01*
G01*
X129107000Y-87989000D01*
G75*
G02*
X129044500Y-87926500I0J62500D01*
G01*
G37*
G36*
G01*
X128569500Y-88926500D02*
X128569500Y-88276500D01*
G75*
G02*
X128632000Y-88214000I62500J0D01*
G01*
X128757000Y-88214000D01*
G75*
G02*
X128819500Y-88276500I0J-62500D01*
G01*
X128819500Y-88926500D01*
G75*
G02*
X128757000Y-88989000I-62500J0D01*
G01*
X128632000Y-88989000D01*
G75*
G02*
X128569500Y-88926500I0J62500D01*
G01*
G37*
G36*
G01*
X128069500Y-88926500D02*
X128069500Y-88276500D01*
G75*
G02*
X128132000Y-88214000I62500J0D01*
G01*
X128257000Y-88214000D01*
G75*
G02*
X128319500Y-88276500I0J-62500D01*
G01*
X128319500Y-88926500D01*
G75*
G02*
X128257000Y-88989000I-62500J0D01*
G01*
X128132000Y-88989000D01*
G75*
G02*
X128069500Y-88926500I0J62500D01*
G01*
G37*
G36*
G01*
X127569500Y-88926500D02*
X127569500Y-88276500D01*
G75*
G02*
X127632000Y-88214000I62500J0D01*
G01*
X127757000Y-88214000D01*
G75*
G02*
X127819500Y-88276500I0J-62500D01*
G01*
X127819500Y-88926500D01*
G75*
G02*
X127757000Y-88989000I-62500J0D01*
G01*
X127632000Y-88989000D01*
G75*
G02*
X127569500Y-88926500I0J62500D01*
G01*
G37*
G36*
G01*
X127069500Y-88926500D02*
X127069500Y-88276500D01*
G75*
G02*
X127132000Y-88214000I62500J0D01*
G01*
X127257000Y-88214000D01*
G75*
G02*
X127319500Y-88276500I0J-62500D01*
G01*
X127319500Y-88926500D01*
G75*
G02*
X127257000Y-88989000I-62500J0D01*
G01*
X127132000Y-88989000D01*
G75*
G02*
X127069500Y-88926500I0J62500D01*
G01*
G37*
G36*
G01*
X126569500Y-88926500D02*
X126569500Y-88276500D01*
G75*
G02*
X126632000Y-88214000I62500J0D01*
G01*
X126757000Y-88214000D01*
G75*
G02*
X126819500Y-88276500I0J-62500D01*
G01*
X126819500Y-88926500D01*
G75*
G02*
X126757000Y-88989000I-62500J0D01*
G01*
X126632000Y-88989000D01*
G75*
G02*
X126569500Y-88926500I0J62500D01*
G01*
G37*
G36*
G01*
X126069500Y-88926500D02*
X126069500Y-88276500D01*
G75*
G02*
X126132000Y-88214000I62500J0D01*
G01*
X126257000Y-88214000D01*
G75*
G02*
X126319500Y-88276500I0J-62500D01*
G01*
X126319500Y-88926500D01*
G75*
G02*
X126257000Y-88989000I-62500J0D01*
G01*
X126132000Y-88989000D01*
G75*
G02*
X126069500Y-88926500I0J62500D01*
G01*
G37*
G36*
G01*
X125069500Y-87926500D02*
X125069500Y-87801500D01*
G75*
G02*
X125132000Y-87739000I62500J0D01*
G01*
X125782000Y-87739000D01*
G75*
G02*
X125844500Y-87801500I0J-62500D01*
G01*
X125844500Y-87926500D01*
G75*
G02*
X125782000Y-87989000I-62500J0D01*
G01*
X125132000Y-87989000D01*
G75*
G02*
X125069500Y-87926500I0J62500D01*
G01*
G37*
G36*
G01*
X125069500Y-87426500D02*
X125069500Y-87301500D01*
G75*
G02*
X125132000Y-87239000I62500J0D01*
G01*
X125782000Y-87239000D01*
G75*
G02*
X125844500Y-87301500I0J-62500D01*
G01*
X125844500Y-87426500D01*
G75*
G02*
X125782000Y-87489000I-62500J0D01*
G01*
X125132000Y-87489000D01*
G75*
G02*
X125069500Y-87426500I0J62500D01*
G01*
G37*
G36*
G01*
X125069500Y-86926500D02*
X125069500Y-86801500D01*
G75*
G02*
X125132000Y-86739000I62500J0D01*
G01*
X125782000Y-86739000D01*
G75*
G02*
X125844500Y-86801500I0J-62500D01*
G01*
X125844500Y-86926500D01*
G75*
G02*
X125782000Y-86989000I-62500J0D01*
G01*
X125132000Y-86989000D01*
G75*
G02*
X125069500Y-86926500I0J62500D01*
G01*
G37*
G36*
G01*
X125069500Y-86426500D02*
X125069500Y-86301500D01*
G75*
G02*
X125132000Y-86239000I62500J0D01*
G01*
X125782000Y-86239000D01*
G75*
G02*
X125844500Y-86301500I0J-62500D01*
G01*
X125844500Y-86426500D01*
G75*
G02*
X125782000Y-86489000I-62500J0D01*
G01*
X125132000Y-86489000D01*
G75*
G02*
X125069500Y-86426500I0J62500D01*
G01*
G37*
G36*
G01*
X125069500Y-85926500D02*
X125069500Y-85801500D01*
G75*
G02*
X125132000Y-85739000I62500J0D01*
G01*
X125782000Y-85739000D01*
G75*
G02*
X125844500Y-85801500I0J-62500D01*
G01*
X125844500Y-85926500D01*
G75*
G02*
X125782000Y-85989000I-62500J0D01*
G01*
X125132000Y-85989000D01*
G75*
G02*
X125069500Y-85926500I0J62500D01*
G01*
G37*
G36*
G01*
X125069500Y-85426500D02*
X125069500Y-85301500D01*
G75*
G02*
X125132000Y-85239000I62500J0D01*
G01*
X125782000Y-85239000D01*
G75*
G02*
X125844500Y-85301500I0J-62500D01*
G01*
X125844500Y-85426500D01*
G75*
G02*
X125782000Y-85489000I-62500J0D01*
G01*
X125132000Y-85489000D01*
G75*
G02*
X125069500Y-85426500I0J62500D01*
G01*
G37*
G36*
G01*
X127934500Y-87599000D02*
X127934500Y-87269000D01*
G75*
G02*
X128099500Y-87104000I165000J0D01*
G01*
X128429500Y-87104000D01*
G75*
G02*
X128594500Y-87269000I0J-165000D01*
G01*
X128594500Y-87599000D01*
G75*
G02*
X128429500Y-87764000I-165000J0D01*
G01*
X128099500Y-87764000D01*
G75*
G02*
X127934500Y-87599000I0J165000D01*
G01*
G37*
G36*
G01*
X127934500Y-86779000D02*
X127934500Y-86449000D01*
G75*
G02*
X128099500Y-86284000I165000J0D01*
G01*
X128429500Y-86284000D01*
G75*
G02*
X128594500Y-86449000I0J-165000D01*
G01*
X128594500Y-86779000D01*
G75*
G02*
X128429500Y-86944000I-165000J0D01*
G01*
X128099500Y-86944000D01*
G75*
G02*
X127934500Y-86779000I0J165000D01*
G01*
G37*
G36*
G01*
X127934500Y-85959000D02*
X127934500Y-85629000D01*
G75*
G02*
X128099500Y-85464000I165000J0D01*
G01*
X128429500Y-85464000D01*
G75*
G02*
X128594500Y-85629000I0J-165000D01*
G01*
X128594500Y-85959000D01*
G75*
G02*
X128429500Y-86124000I-165000J0D01*
G01*
X128099500Y-86124000D01*
G75*
G02*
X127934500Y-85959000I0J165000D01*
G01*
G37*
G36*
G01*
X127114500Y-87599000D02*
X127114500Y-87269000D01*
G75*
G02*
X127279500Y-87104000I165000J0D01*
G01*
X127609500Y-87104000D01*
G75*
G02*
X127774500Y-87269000I0J-165000D01*
G01*
X127774500Y-87599000D01*
G75*
G02*
X127609500Y-87764000I-165000J0D01*
G01*
X127279500Y-87764000D01*
G75*
G02*
X127114500Y-87599000I0J165000D01*
G01*
G37*
G36*
G01*
X127114500Y-86779000D02*
X127114500Y-86449000D01*
G75*
G02*
X127279500Y-86284000I165000J0D01*
G01*
X127609500Y-86284000D01*
G75*
G02*
X127774500Y-86449000I0J-165000D01*
G01*
X127774500Y-86779000D01*
G75*
G02*
X127609500Y-86944000I-165000J0D01*
G01*
X127279500Y-86944000D01*
G75*
G02*
X127114500Y-86779000I0J165000D01*
G01*
G37*
G36*
G01*
X127114500Y-85959000D02*
X127114500Y-85629000D01*
G75*
G02*
X127279500Y-85464000I165000J0D01*
G01*
X127609500Y-85464000D01*
G75*
G02*
X127774500Y-85629000I0J-165000D01*
G01*
X127774500Y-85959000D01*
G75*
G02*
X127609500Y-86124000I-165000J0D01*
G01*
X127279500Y-86124000D01*
G75*
G02*
X127114500Y-85959000I0J165000D01*
G01*
G37*
G36*
G01*
X126294500Y-87599000D02*
X126294500Y-87269000D01*
G75*
G02*
X126459500Y-87104000I165000J0D01*
G01*
X126789500Y-87104000D01*
G75*
G02*
X126954500Y-87269000I0J-165000D01*
G01*
X126954500Y-87599000D01*
G75*
G02*
X126789500Y-87764000I-165000J0D01*
G01*
X126459500Y-87764000D01*
G75*
G02*
X126294500Y-87599000I0J165000D01*
G01*
G37*
G36*
G01*
X126294500Y-86779000D02*
X126294500Y-86449000D01*
G75*
G02*
X126459500Y-86284000I165000J0D01*
G01*
X126789500Y-86284000D01*
G75*
G02*
X126954500Y-86449000I0J-165000D01*
G01*
X126954500Y-86779000D01*
G75*
G02*
X126789500Y-86944000I-165000J0D01*
G01*
X126459500Y-86944000D01*
G75*
G02*
X126294500Y-86779000I0J165000D01*
G01*
G37*
G36*
G01*
X126294500Y-85959000D02*
X126294500Y-85629000D01*
G75*
G02*
X126459500Y-85464000I165000J0D01*
G01*
X126789500Y-85464000D01*
G75*
G02*
X126954500Y-85629000I0J-165000D01*
G01*
X126954500Y-85959000D01*
G75*
G02*
X126789500Y-86124000I-165000J0D01*
G01*
X126459500Y-86124000D01*
G75*
G02*
X126294500Y-85959000I0J165000D01*
G01*
G37*
G36*
G01*
X104020000Y-86126000D02*
X104020000Y-86456000D01*
G75*
G02*
X103855000Y-86621000I-165000J0D01*
G01*
X103525000Y-86621000D01*
G75*
G02*
X103360000Y-86456000I0J165000D01*
G01*
X103360000Y-86126000D01*
G75*
G02*
X103525000Y-85961000I165000J0D01*
G01*
X103855000Y-85961000D01*
G75*
G02*
X104020000Y-86126000I0J-165000D01*
G01*
G37*
G36*
G01*
X104020000Y-85306000D02*
X104020000Y-85636000D01*
G75*
G02*
X103855000Y-85801000I-165000J0D01*
G01*
X103525000Y-85801000D01*
G75*
G02*
X103360000Y-85636000I0J165000D01*
G01*
X103360000Y-85306000D01*
G75*
G02*
X103525000Y-85141000I165000J0D01*
G01*
X103855000Y-85141000D01*
G75*
G02*
X104020000Y-85306000I0J-165000D01*
G01*
G37*
G36*
G01*
X104020000Y-84486000D02*
X104020000Y-84816000D01*
G75*
G02*
X103855000Y-84981000I-165000J0D01*
G01*
X103525000Y-84981000D01*
G75*
G02*
X103360000Y-84816000I0J165000D01*
G01*
X103360000Y-84486000D01*
G75*
G02*
X103525000Y-84321000I165000J0D01*
G01*
X103855000Y-84321000D01*
G75*
G02*
X104020000Y-84486000I0J-165000D01*
G01*
G37*
G36*
G01*
X103200000Y-86126000D02*
X103200000Y-86456000D01*
G75*
G02*
X103035000Y-86621000I-165000J0D01*
G01*
X102705000Y-86621000D01*
G75*
G02*
X102540000Y-86456000I0J165000D01*
G01*
X102540000Y-86126000D01*
G75*
G02*
X102705000Y-85961000I165000J0D01*
G01*
X103035000Y-85961000D01*
G75*
G02*
X103200000Y-86126000I0J-165000D01*
G01*
G37*
G36*
G01*
X103200000Y-85306000D02*
X103200000Y-85636000D01*
G75*
G02*
X103035000Y-85801000I-165000J0D01*
G01*
X102705000Y-85801000D01*
G75*
G02*
X102540000Y-85636000I0J165000D01*
G01*
X102540000Y-85306000D01*
G75*
G02*
X102705000Y-85141000I165000J0D01*
G01*
X103035000Y-85141000D01*
G75*
G02*
X103200000Y-85306000I0J-165000D01*
G01*
G37*
G36*
G01*
X103200000Y-84486000D02*
X103200000Y-84816000D01*
G75*
G02*
X103035000Y-84981000I-165000J0D01*
G01*
X102705000Y-84981000D01*
G75*
G02*
X102540000Y-84816000I0J165000D01*
G01*
X102540000Y-84486000D01*
G75*
G02*
X102705000Y-84321000I165000J0D01*
G01*
X103035000Y-84321000D01*
G75*
G02*
X103200000Y-84486000I0J-165000D01*
G01*
G37*
G36*
G01*
X102380000Y-86126000D02*
X102380000Y-86456000D01*
G75*
G02*
X102215000Y-86621000I-165000J0D01*
G01*
X101885000Y-86621000D01*
G75*
G02*
X101720000Y-86456000I0J165000D01*
G01*
X101720000Y-86126000D01*
G75*
G02*
X101885000Y-85961000I165000J0D01*
G01*
X102215000Y-85961000D01*
G75*
G02*
X102380000Y-86126000I0J-165000D01*
G01*
G37*
G36*
G01*
X102380000Y-85306000D02*
X102380000Y-85636000D01*
G75*
G02*
X102215000Y-85801000I-165000J0D01*
G01*
X101885000Y-85801000D01*
G75*
G02*
X101720000Y-85636000I0J165000D01*
G01*
X101720000Y-85306000D01*
G75*
G02*
X101885000Y-85141000I165000J0D01*
G01*
X102215000Y-85141000D01*
G75*
G02*
X102380000Y-85306000I0J-165000D01*
G01*
G37*
G36*
G01*
X102380000Y-84486000D02*
X102380000Y-84816000D01*
G75*
G02*
X102215000Y-84981000I-165000J0D01*
G01*
X101885000Y-84981000D01*
G75*
G02*
X101720000Y-84816000I0J165000D01*
G01*
X101720000Y-84486000D01*
G75*
G02*
X101885000Y-84321000I165000J0D01*
G01*
X102215000Y-84321000D01*
G75*
G02*
X102380000Y-84486000I0J-165000D01*
G01*
G37*
G36*
G01*
X105245000Y-86658500D02*
X105245000Y-86783500D01*
G75*
G02*
X105182500Y-86846000I-62500J0D01*
G01*
X104532500Y-86846000D01*
G75*
G02*
X104470000Y-86783500I0J62500D01*
G01*
X104470000Y-86658500D01*
G75*
G02*
X104532500Y-86596000I62500J0D01*
G01*
X105182500Y-86596000D01*
G75*
G02*
X105245000Y-86658500I0J-62500D01*
G01*
G37*
G36*
G01*
X105245000Y-86158500D02*
X105245000Y-86283500D01*
G75*
G02*
X105182500Y-86346000I-62500J0D01*
G01*
X104532500Y-86346000D01*
G75*
G02*
X104470000Y-86283500I0J62500D01*
G01*
X104470000Y-86158500D01*
G75*
G02*
X104532500Y-86096000I62500J0D01*
G01*
X105182500Y-86096000D01*
G75*
G02*
X105245000Y-86158500I0J-62500D01*
G01*
G37*
G36*
G01*
X105245000Y-85658500D02*
X105245000Y-85783500D01*
G75*
G02*
X105182500Y-85846000I-62500J0D01*
G01*
X104532500Y-85846000D01*
G75*
G02*
X104470000Y-85783500I0J62500D01*
G01*
X104470000Y-85658500D01*
G75*
G02*
X104532500Y-85596000I62500J0D01*
G01*
X105182500Y-85596000D01*
G75*
G02*
X105245000Y-85658500I0J-62500D01*
G01*
G37*
G36*
G01*
X105245000Y-85158500D02*
X105245000Y-85283500D01*
G75*
G02*
X105182500Y-85346000I-62500J0D01*
G01*
X104532500Y-85346000D01*
G75*
G02*
X104470000Y-85283500I0J62500D01*
G01*
X104470000Y-85158500D01*
G75*
G02*
X104532500Y-85096000I62500J0D01*
G01*
X105182500Y-85096000D01*
G75*
G02*
X105245000Y-85158500I0J-62500D01*
G01*
G37*
G36*
G01*
X105245000Y-84658500D02*
X105245000Y-84783500D01*
G75*
G02*
X105182500Y-84846000I-62500J0D01*
G01*
X104532500Y-84846000D01*
G75*
G02*
X104470000Y-84783500I0J62500D01*
G01*
X104470000Y-84658500D01*
G75*
G02*
X104532500Y-84596000I62500J0D01*
G01*
X105182500Y-84596000D01*
G75*
G02*
X105245000Y-84658500I0J-62500D01*
G01*
G37*
G36*
G01*
X105245000Y-84158500D02*
X105245000Y-84283500D01*
G75*
G02*
X105182500Y-84346000I-62500J0D01*
G01*
X104532500Y-84346000D01*
G75*
G02*
X104470000Y-84283500I0J62500D01*
G01*
X104470000Y-84158500D01*
G75*
G02*
X104532500Y-84096000I62500J0D01*
G01*
X105182500Y-84096000D01*
G75*
G02*
X105245000Y-84158500I0J-62500D01*
G01*
G37*
G36*
G01*
X104245000Y-83158500D02*
X104245000Y-83808500D01*
G75*
G02*
X104182500Y-83871000I-62500J0D01*
G01*
X104057500Y-83871000D01*
G75*
G02*
X103995000Y-83808500I0J62500D01*
G01*
X103995000Y-83158500D01*
G75*
G02*
X104057500Y-83096000I62500J0D01*
G01*
X104182500Y-83096000D01*
G75*
G02*
X104245000Y-83158500I0J-62500D01*
G01*
G37*
G36*
G01*
X103745000Y-83158500D02*
X103745000Y-83808500D01*
G75*
G02*
X103682500Y-83871000I-62500J0D01*
G01*
X103557500Y-83871000D01*
G75*
G02*
X103495000Y-83808500I0J62500D01*
G01*
X103495000Y-83158500D01*
G75*
G02*
X103557500Y-83096000I62500J0D01*
G01*
X103682500Y-83096000D01*
G75*
G02*
X103745000Y-83158500I0J-62500D01*
G01*
G37*
G36*
G01*
X103245000Y-83158500D02*
X103245000Y-83808500D01*
G75*
G02*
X103182500Y-83871000I-62500J0D01*
G01*
X103057500Y-83871000D01*
G75*
G02*
X102995000Y-83808500I0J62500D01*
G01*
X102995000Y-83158500D01*
G75*
G02*
X103057500Y-83096000I62500J0D01*
G01*
X103182500Y-83096000D01*
G75*
G02*
X103245000Y-83158500I0J-62500D01*
G01*
G37*
G36*
G01*
X102745000Y-83158500D02*
X102745000Y-83808500D01*
G75*
G02*
X102682500Y-83871000I-62500J0D01*
G01*
X102557500Y-83871000D01*
G75*
G02*
X102495000Y-83808500I0J62500D01*
G01*
X102495000Y-83158500D01*
G75*
G02*
X102557500Y-83096000I62500J0D01*
G01*
X102682500Y-83096000D01*
G75*
G02*
X102745000Y-83158500I0J-62500D01*
G01*
G37*
G36*
G01*
X102245000Y-83158500D02*
X102245000Y-83808500D01*
G75*
G02*
X102182500Y-83871000I-62500J0D01*
G01*
X102057500Y-83871000D01*
G75*
G02*
X101995000Y-83808500I0J62500D01*
G01*
X101995000Y-83158500D01*
G75*
G02*
X102057500Y-83096000I62500J0D01*
G01*
X102182500Y-83096000D01*
G75*
G02*
X102245000Y-83158500I0J-62500D01*
G01*
G37*
G36*
G01*
X101745000Y-83158500D02*
X101745000Y-83808500D01*
G75*
G02*
X101682500Y-83871000I-62500J0D01*
G01*
X101557500Y-83871000D01*
G75*
G02*
X101495000Y-83808500I0J62500D01*
G01*
X101495000Y-83158500D01*
G75*
G02*
X101557500Y-83096000I62500J0D01*
G01*
X101682500Y-83096000D01*
G75*
G02*
X101745000Y-83158500I0J-62500D01*
G01*
G37*
G36*
G01*
X101270000Y-84158500D02*
X101270000Y-84283500D01*
G75*
G02*
X101207500Y-84346000I-62500J0D01*
G01*
X100557500Y-84346000D01*
G75*
G02*
X100495000Y-84283500I0J62500D01*
G01*
X100495000Y-84158500D01*
G75*
G02*
X100557500Y-84096000I62500J0D01*
G01*
X101207500Y-84096000D01*
G75*
G02*
X101270000Y-84158500I0J-62500D01*
G01*
G37*
G36*
G01*
X101270000Y-84658500D02*
X101270000Y-84783500D01*
G75*
G02*
X101207500Y-84846000I-62500J0D01*
G01*
X100557500Y-84846000D01*
G75*
G02*
X100495000Y-84783500I0J62500D01*
G01*
X100495000Y-84658500D01*
G75*
G02*
X100557500Y-84596000I62500J0D01*
G01*
X101207500Y-84596000D01*
G75*
G02*
X101270000Y-84658500I0J-62500D01*
G01*
G37*
G36*
G01*
X101270000Y-85158500D02*
X101270000Y-85283500D01*
G75*
G02*
X101207500Y-85346000I-62500J0D01*
G01*
X100557500Y-85346000D01*
G75*
G02*
X100495000Y-85283500I0J62500D01*
G01*
X100495000Y-85158500D01*
G75*
G02*
X100557500Y-85096000I62500J0D01*
G01*
X101207500Y-85096000D01*
G75*
G02*
X101270000Y-85158500I0J-62500D01*
G01*
G37*
G36*
G01*
X101270000Y-85658500D02*
X101270000Y-85783500D01*
G75*
G02*
X101207500Y-85846000I-62500J0D01*
G01*
X100557500Y-85846000D01*
G75*
G02*
X100495000Y-85783500I0J62500D01*
G01*
X100495000Y-85658500D01*
G75*
G02*
X100557500Y-85596000I62500J0D01*
G01*
X101207500Y-85596000D01*
G75*
G02*
X101270000Y-85658500I0J-62500D01*
G01*
G37*
G36*
G01*
X101270000Y-86158500D02*
X101270000Y-86283500D01*
G75*
G02*
X101207500Y-86346000I-62500J0D01*
G01*
X100557500Y-86346000D01*
G75*
G02*
X100495000Y-86283500I0J62500D01*
G01*
X100495000Y-86158500D01*
G75*
G02*
X100557500Y-86096000I62500J0D01*
G01*
X101207500Y-86096000D01*
G75*
G02*
X101270000Y-86158500I0J-62500D01*
G01*
G37*
G36*
G01*
X101270000Y-86658500D02*
X101270000Y-86783500D01*
G75*
G02*
X101207500Y-86846000I-62500J0D01*
G01*
X100557500Y-86846000D01*
G75*
G02*
X100495000Y-86783500I0J62500D01*
G01*
X100495000Y-86658500D01*
G75*
G02*
X100557500Y-86596000I62500J0D01*
G01*
X101207500Y-86596000D01*
G75*
G02*
X101270000Y-86658500I0J-62500D01*
G01*
G37*
G36*
G01*
X101745000Y-87133500D02*
X101745000Y-87783500D01*
G75*
G02*
X101682500Y-87846000I-62500J0D01*
G01*
X101557500Y-87846000D01*
G75*
G02*
X101495000Y-87783500I0J62500D01*
G01*
X101495000Y-87133500D01*
G75*
G02*
X101557500Y-87071000I62500J0D01*
G01*
X101682500Y-87071000D01*
G75*
G02*
X101745000Y-87133500I0J-62500D01*
G01*
G37*
G36*
G01*
X102245000Y-87133500D02*
X102245000Y-87783500D01*
G75*
G02*
X102182500Y-87846000I-62500J0D01*
G01*
X102057500Y-87846000D01*
G75*
G02*
X101995000Y-87783500I0J62500D01*
G01*
X101995000Y-87133500D01*
G75*
G02*
X102057500Y-87071000I62500J0D01*
G01*
X102182500Y-87071000D01*
G75*
G02*
X102245000Y-87133500I0J-62500D01*
G01*
G37*
G36*
G01*
X102745000Y-87133500D02*
X102745000Y-87783500D01*
G75*
G02*
X102682500Y-87846000I-62500J0D01*
G01*
X102557500Y-87846000D01*
G75*
G02*
X102495000Y-87783500I0J62500D01*
G01*
X102495000Y-87133500D01*
G75*
G02*
X102557500Y-87071000I62500J0D01*
G01*
X102682500Y-87071000D01*
G75*
G02*
X102745000Y-87133500I0J-62500D01*
G01*
G37*
G36*
G01*
X103245000Y-87133500D02*
X103245000Y-87783500D01*
G75*
G02*
X103182500Y-87846000I-62500J0D01*
G01*
X103057500Y-87846000D01*
G75*
G02*
X102995000Y-87783500I0J62500D01*
G01*
X102995000Y-87133500D01*
G75*
G02*
X103057500Y-87071000I62500J0D01*
G01*
X103182500Y-87071000D01*
G75*
G02*
X103245000Y-87133500I0J-62500D01*
G01*
G37*
G36*
G01*
X103745000Y-87133500D02*
X103745000Y-87783500D01*
G75*
G02*
X103682500Y-87846000I-62500J0D01*
G01*
X103557500Y-87846000D01*
G75*
G02*
X103495000Y-87783500I0J62500D01*
G01*
X103495000Y-87133500D01*
G75*
G02*
X103557500Y-87071000I62500J0D01*
G01*
X103682500Y-87071000D01*
G75*
G02*
X103745000Y-87133500I0J-62500D01*
G01*
G37*
G36*
G01*
X104245000Y-87133500D02*
X104245000Y-87783500D01*
G75*
G02*
X104182500Y-87846000I-62500J0D01*
G01*
X104057500Y-87846000D01*
G75*
G02*
X103995000Y-87783500I0J62500D01*
G01*
X103995000Y-87133500D01*
G75*
G02*
X104057500Y-87071000I62500J0D01*
G01*
X104182500Y-87071000D01*
G75*
G02*
X104245000Y-87133500I0J-62500D01*
G01*
G37*
D25*
X112353000Y-77341500D03*
X112353000Y-78741500D03*
X113453000Y-78741500D03*
X113453000Y-77341500D03*
M02*
