G04 #@! TF.GenerationSoftware,KiCad,Pcbnew,5.1.6*
G04 #@! TF.CreationDate,2020-05-21T11:34:31+02:00*
G04 #@! TF.ProjectId,luna_rev0,6c756e61-5f72-4657-9630-2e6b69636164,r0*
G04 #@! TF.SameCoordinates,Original*
G04 #@! TF.FileFunction,Paste,Bot*
G04 #@! TF.FilePolarity,Positive*
%FSLAX46Y46*%
G04 Gerber Fmt 4.6, Leading zero omitted, Abs format (unit mm)*
G04 Created by KiCad (PCBNEW 5.1.6) date 2020-05-21 11:34:31*
%MOMM*%
%LPD*%
G01*
G04 APERTURE LIST*
G04 APERTURE END LIST*
G36*
G01*
X114048250Y-81616000D02*
X113535750Y-81616000D01*
G75*
G02*
X113317000Y-81397250I0J218750D01*
G01*
X113317000Y-80959750D01*
G75*
G02*
X113535750Y-80741000I218750J0D01*
G01*
X114048250Y-80741000D01*
G75*
G02*
X114267000Y-80959750I0J-218750D01*
G01*
X114267000Y-81397250D01*
G75*
G02*
X114048250Y-81616000I-218750J0D01*
G01*
G37*
G36*
G01*
X114048250Y-80041000D02*
X113535750Y-80041000D01*
G75*
G02*
X113317000Y-79822250I0J218750D01*
G01*
X113317000Y-79384750D01*
G75*
G02*
X113535750Y-79166000I218750J0D01*
G01*
X114048250Y-79166000D01*
G75*
G02*
X114267000Y-79384750I0J-218750D01*
G01*
X114267000Y-79822250D01*
G75*
G02*
X114048250Y-80041000I-218750J0D01*
G01*
G37*
G36*
G01*
X107973150Y-91434400D02*
X108485650Y-91434400D01*
G75*
G02*
X108704400Y-91653150I0J-218750D01*
G01*
X108704400Y-92090650D01*
G75*
G02*
X108485650Y-92309400I-218750J0D01*
G01*
X107973150Y-92309400D01*
G75*
G02*
X107754400Y-92090650I0J218750D01*
G01*
X107754400Y-91653150D01*
G75*
G02*
X107973150Y-91434400I218750J0D01*
G01*
G37*
G36*
G01*
X107973150Y-89859400D02*
X108485650Y-89859400D01*
G75*
G02*
X108704400Y-90078150I0J-218750D01*
G01*
X108704400Y-90515650D01*
G75*
G02*
X108485650Y-90734400I-218750J0D01*
G01*
X107973150Y-90734400D01*
G75*
G02*
X107754400Y-90515650I0J218750D01*
G01*
X107754400Y-90078150D01*
G75*
G02*
X107973150Y-89859400I218750J0D01*
G01*
G37*
G36*
G01*
X100005500Y-74927750D02*
X100005500Y-75440250D01*
G75*
G02*
X99786750Y-75659000I-218750J0D01*
G01*
X99349250Y-75659000D01*
G75*
G02*
X99130500Y-75440250I0J218750D01*
G01*
X99130500Y-74927750D01*
G75*
G02*
X99349250Y-74709000I218750J0D01*
G01*
X99786750Y-74709000D01*
G75*
G02*
X100005500Y-74927750I0J-218750D01*
G01*
G37*
G36*
G01*
X98430500Y-74927750D02*
X98430500Y-75440250D01*
G75*
G02*
X98211750Y-75659000I-218750J0D01*
G01*
X97774250Y-75659000D01*
G75*
G02*
X97555500Y-75440250I0J218750D01*
G01*
X97555500Y-74927750D01*
G75*
G02*
X97774250Y-74709000I218750J0D01*
G01*
X98211750Y-74709000D01*
G75*
G02*
X98430500Y-74927750I0J-218750D01*
G01*
G37*
G36*
G01*
X114929500Y-84203250D02*
X114929500Y-83690750D01*
G75*
G02*
X115148250Y-83472000I218750J0D01*
G01*
X115585750Y-83472000D01*
G75*
G02*
X115804500Y-83690750I0J-218750D01*
G01*
X115804500Y-84203250D01*
G75*
G02*
X115585750Y-84422000I-218750J0D01*
G01*
X115148250Y-84422000D01*
G75*
G02*
X114929500Y-84203250I0J218750D01*
G01*
G37*
G36*
G01*
X113354500Y-84203250D02*
X113354500Y-83690750D01*
G75*
G02*
X113573250Y-83472000I218750J0D01*
G01*
X114010750Y-83472000D01*
G75*
G02*
X114229500Y-83690750I0J-218750D01*
G01*
X114229500Y-84203250D01*
G75*
G02*
X114010750Y-84422000I-218750J0D01*
G01*
X113573250Y-84422000D01*
G75*
G02*
X113354500Y-84203250I0J218750D01*
G01*
G37*
G36*
G01*
X110114300Y-80804800D02*
X110459300Y-80804800D01*
G75*
G02*
X110606800Y-80952300I0J-147500D01*
G01*
X110606800Y-81247300D01*
G75*
G02*
X110459300Y-81394800I-147500J0D01*
G01*
X110114300Y-81394800D01*
G75*
G02*
X109966800Y-81247300I0J147500D01*
G01*
X109966800Y-80952300D01*
G75*
G02*
X110114300Y-80804800I147500J0D01*
G01*
G37*
G36*
G01*
X110114300Y-81774800D02*
X110459300Y-81774800D01*
G75*
G02*
X110606800Y-81922300I0J-147500D01*
G01*
X110606800Y-82217300D01*
G75*
G02*
X110459300Y-82364800I-147500J0D01*
G01*
X110114300Y-82364800D01*
G75*
G02*
X109966800Y-82217300I0J147500D01*
G01*
X109966800Y-81922300D01*
G75*
G02*
X110114300Y-81774800I147500J0D01*
G01*
G37*
G36*
G01*
X120500500Y-100792500D02*
X120500500Y-101137500D01*
G75*
G02*
X120353000Y-101285000I-147500J0D01*
G01*
X120058000Y-101285000D01*
G75*
G02*
X119910500Y-101137500I0J147500D01*
G01*
X119910500Y-100792500D01*
G75*
G02*
X120058000Y-100645000I147500J0D01*
G01*
X120353000Y-100645000D01*
G75*
G02*
X120500500Y-100792500I0J-147500D01*
G01*
G37*
G36*
G01*
X119530500Y-100792500D02*
X119530500Y-101137500D01*
G75*
G02*
X119383000Y-101285000I-147500J0D01*
G01*
X119088000Y-101285000D01*
G75*
G02*
X118940500Y-101137500I0J147500D01*
G01*
X118940500Y-100792500D01*
G75*
G02*
X119088000Y-100645000I147500J0D01*
G01*
X119383000Y-100645000D01*
G75*
G02*
X119530500Y-100792500I0J-147500D01*
G01*
G37*
G36*
G01*
X115483000Y-89009000D02*
X115483000Y-88664000D01*
G75*
G02*
X115630500Y-88516500I147500J0D01*
G01*
X115925500Y-88516500D01*
G75*
G02*
X116073000Y-88664000I0J-147500D01*
G01*
X116073000Y-89009000D01*
G75*
G02*
X115925500Y-89156500I-147500J0D01*
G01*
X115630500Y-89156500D01*
G75*
G02*
X115483000Y-89009000I0J147500D01*
G01*
G37*
G36*
G01*
X114513000Y-89009000D02*
X114513000Y-88664000D01*
G75*
G02*
X114660500Y-88516500I147500J0D01*
G01*
X114955500Y-88516500D01*
G75*
G02*
X115103000Y-88664000I0J-147500D01*
G01*
X115103000Y-89009000D01*
G75*
G02*
X114955500Y-89156500I-147500J0D01*
G01*
X114660500Y-89156500D01*
G75*
G02*
X114513000Y-89009000I0J147500D01*
G01*
G37*
G36*
G01*
X98385000Y-73741500D02*
X98385000Y-74086500D01*
G75*
G02*
X98237500Y-74234000I-147500J0D01*
G01*
X97942500Y-74234000D01*
G75*
G02*
X97795000Y-74086500I0J147500D01*
G01*
X97795000Y-73741500D01*
G75*
G02*
X97942500Y-73594000I147500J0D01*
G01*
X98237500Y-73594000D01*
G75*
G02*
X98385000Y-73741500I0J-147500D01*
G01*
G37*
G36*
G01*
X99355000Y-73741500D02*
X99355000Y-74086500D01*
G75*
G02*
X99207500Y-74234000I-147500J0D01*
G01*
X98912500Y-74234000D01*
G75*
G02*
X98765000Y-74086500I0J147500D01*
G01*
X98765000Y-73741500D01*
G75*
G02*
X98912500Y-73594000I147500J0D01*
G01*
X99207500Y-73594000D01*
G75*
G02*
X99355000Y-73741500I0J-147500D01*
G01*
G37*
G36*
G01*
X114218500Y-85453000D02*
X114218500Y-85108000D01*
G75*
G02*
X114366000Y-84960500I147500J0D01*
G01*
X114661000Y-84960500D01*
G75*
G02*
X114808500Y-85108000I0J-147500D01*
G01*
X114808500Y-85453000D01*
G75*
G02*
X114661000Y-85600500I-147500J0D01*
G01*
X114366000Y-85600500D01*
G75*
G02*
X114218500Y-85453000I0J147500D01*
G01*
G37*
G36*
G01*
X115188500Y-85453000D02*
X115188500Y-85108000D01*
G75*
G02*
X115336000Y-84960500I147500J0D01*
G01*
X115631000Y-84960500D01*
G75*
G02*
X115778500Y-85108000I0J-147500D01*
G01*
X115778500Y-85453000D01*
G75*
G02*
X115631000Y-85600500I-147500J0D01*
G01*
X115336000Y-85600500D01*
G75*
G02*
X115188500Y-85453000I0J147500D01*
G01*
G37*
G36*
G01*
X113520000Y-82722500D02*
X113520000Y-82377500D01*
G75*
G02*
X113667500Y-82230000I147500J0D01*
G01*
X113962500Y-82230000D01*
G75*
G02*
X114110000Y-82377500I0J-147500D01*
G01*
X114110000Y-82722500D01*
G75*
G02*
X113962500Y-82870000I-147500J0D01*
G01*
X113667500Y-82870000D01*
G75*
G02*
X113520000Y-82722500I0J147500D01*
G01*
G37*
G36*
G01*
X114490000Y-82722500D02*
X114490000Y-82377500D01*
G75*
G02*
X114637500Y-82230000I147500J0D01*
G01*
X114932500Y-82230000D01*
G75*
G02*
X115080000Y-82377500I0J-147500D01*
G01*
X115080000Y-82722500D01*
G75*
G02*
X114932500Y-82870000I-147500J0D01*
G01*
X114637500Y-82870000D01*
G75*
G02*
X114490000Y-82722500I0J147500D01*
G01*
G37*
G36*
G01*
X109837000Y-85194500D02*
X109492000Y-85194500D01*
G75*
G02*
X109344500Y-85047000I0J147500D01*
G01*
X109344500Y-84752000D01*
G75*
G02*
X109492000Y-84604500I147500J0D01*
G01*
X109837000Y-84604500D01*
G75*
G02*
X109984500Y-84752000I0J-147500D01*
G01*
X109984500Y-85047000D01*
G75*
G02*
X109837000Y-85194500I-147500J0D01*
G01*
G37*
G36*
G01*
X109837000Y-86164500D02*
X109492000Y-86164500D01*
G75*
G02*
X109344500Y-86017000I0J147500D01*
G01*
X109344500Y-85722000D01*
G75*
G02*
X109492000Y-85574500I147500J0D01*
G01*
X109837000Y-85574500D01*
G75*
G02*
X109984500Y-85722000I0J-147500D01*
G01*
X109984500Y-86017000D01*
G75*
G02*
X109837000Y-86164500I-147500J0D01*
G01*
G37*
G36*
G01*
X109849700Y-88783800D02*
X109504700Y-88783800D01*
G75*
G02*
X109357200Y-88636300I0J147500D01*
G01*
X109357200Y-88341300D01*
G75*
G02*
X109504700Y-88193800I147500J0D01*
G01*
X109849700Y-88193800D01*
G75*
G02*
X109997200Y-88341300I0J-147500D01*
G01*
X109997200Y-88636300D01*
G75*
G02*
X109849700Y-88783800I-147500J0D01*
G01*
G37*
G36*
G01*
X109849700Y-89753800D02*
X109504700Y-89753800D01*
G75*
G02*
X109357200Y-89606300I0J147500D01*
G01*
X109357200Y-89311300D01*
G75*
G02*
X109504700Y-89163800I147500J0D01*
G01*
X109849700Y-89163800D01*
G75*
G02*
X109997200Y-89311300I0J-147500D01*
G01*
X109997200Y-89606300D01*
G75*
G02*
X109849700Y-89753800I-147500J0D01*
G01*
G37*
G36*
G01*
X109492000Y-90827500D02*
X109837000Y-90827500D01*
G75*
G02*
X109984500Y-90975000I0J-147500D01*
G01*
X109984500Y-91270000D01*
G75*
G02*
X109837000Y-91417500I-147500J0D01*
G01*
X109492000Y-91417500D01*
G75*
G02*
X109344500Y-91270000I0J147500D01*
G01*
X109344500Y-90975000D01*
G75*
G02*
X109492000Y-90827500I147500J0D01*
G01*
G37*
G36*
G01*
X109492000Y-91797500D02*
X109837000Y-91797500D01*
G75*
G02*
X109984500Y-91945000I0J-147500D01*
G01*
X109984500Y-92240000D01*
G75*
G02*
X109837000Y-92387500I-147500J0D01*
G01*
X109492000Y-92387500D01*
G75*
G02*
X109344500Y-92240000I0J147500D01*
G01*
X109344500Y-91945000D01*
G75*
G02*
X109492000Y-91797500I147500J0D01*
G01*
G37*
G36*
G01*
X122867000Y-75376750D02*
X122867000Y-74864250D01*
G75*
G02*
X123085750Y-74645500I218750J0D01*
G01*
X123523250Y-74645500D01*
G75*
G02*
X123742000Y-74864250I0J-218750D01*
G01*
X123742000Y-75376750D01*
G75*
G02*
X123523250Y-75595500I-218750J0D01*
G01*
X123085750Y-75595500D01*
G75*
G02*
X122867000Y-75376750I0J218750D01*
G01*
G37*
G36*
G01*
X121292000Y-75376750D02*
X121292000Y-74864250D01*
G75*
G02*
X121510750Y-74645500I218750J0D01*
G01*
X121948250Y-74645500D01*
G75*
G02*
X122167000Y-74864250I0J-218750D01*
G01*
X122167000Y-75376750D01*
G75*
G02*
X121948250Y-75595500I-218750J0D01*
G01*
X121510750Y-75595500D01*
G75*
G02*
X121292000Y-75376750I0J218750D01*
G01*
G37*
G36*
G01*
X118267400Y-74137300D02*
X118267400Y-73792300D01*
G75*
G02*
X118414900Y-73644800I147500J0D01*
G01*
X118709900Y-73644800D01*
G75*
G02*
X118857400Y-73792300I0J-147500D01*
G01*
X118857400Y-74137300D01*
G75*
G02*
X118709900Y-74284800I-147500J0D01*
G01*
X118414900Y-74284800D01*
G75*
G02*
X118267400Y-74137300I0J147500D01*
G01*
G37*
G36*
G01*
X119237400Y-74137300D02*
X119237400Y-73792300D01*
G75*
G02*
X119384900Y-73644800I147500J0D01*
G01*
X119679900Y-73644800D01*
G75*
G02*
X119827400Y-73792300I0J-147500D01*
G01*
X119827400Y-74137300D01*
G75*
G02*
X119679900Y-74284800I-147500J0D01*
G01*
X119384900Y-74284800D01*
G75*
G02*
X119237400Y-74137300I0J147500D01*
G01*
G37*
G36*
G01*
X111424500Y-93340000D02*
X111079500Y-93340000D01*
G75*
G02*
X110932000Y-93192500I0J147500D01*
G01*
X110932000Y-92897500D01*
G75*
G02*
X111079500Y-92750000I147500J0D01*
G01*
X111424500Y-92750000D01*
G75*
G02*
X111572000Y-92897500I0J-147500D01*
G01*
X111572000Y-93192500D01*
G75*
G02*
X111424500Y-93340000I-147500J0D01*
G01*
G37*
G36*
G01*
X111424500Y-92370000D02*
X111079500Y-92370000D01*
G75*
G02*
X110932000Y-92222500I0J147500D01*
G01*
X110932000Y-91927500D01*
G75*
G02*
X111079500Y-91780000I147500J0D01*
G01*
X111424500Y-91780000D01*
G75*
G02*
X111572000Y-91927500I0J-147500D01*
G01*
X111572000Y-92222500D01*
G75*
G02*
X111424500Y-92370000I-147500J0D01*
G01*
G37*
G36*
G01*
X117937500Y-78295000D02*
X118282500Y-78295000D01*
G75*
G02*
X118430000Y-78442500I0J-147500D01*
G01*
X118430000Y-78737500D01*
G75*
G02*
X118282500Y-78885000I-147500J0D01*
G01*
X117937500Y-78885000D01*
G75*
G02*
X117790000Y-78737500I0J147500D01*
G01*
X117790000Y-78442500D01*
G75*
G02*
X117937500Y-78295000I147500J0D01*
G01*
G37*
G36*
G01*
X117937500Y-77325000D02*
X118282500Y-77325000D01*
G75*
G02*
X118430000Y-77472500I0J-147500D01*
G01*
X118430000Y-77767500D01*
G75*
G02*
X118282500Y-77915000I-147500J0D01*
G01*
X117937500Y-77915000D01*
G75*
G02*
X117790000Y-77767500I0J147500D01*
G01*
X117790000Y-77472500D01*
G75*
G02*
X117937500Y-77325000I147500J0D01*
G01*
G37*
G36*
G01*
X119212000Y-88183500D02*
X119212000Y-87838500D01*
G75*
G02*
X119359500Y-87691000I147500J0D01*
G01*
X119654500Y-87691000D01*
G75*
G02*
X119802000Y-87838500I0J-147500D01*
G01*
X119802000Y-88183500D01*
G75*
G02*
X119654500Y-88331000I-147500J0D01*
G01*
X119359500Y-88331000D01*
G75*
G02*
X119212000Y-88183500I0J147500D01*
G01*
G37*
G36*
G01*
X118242000Y-88183500D02*
X118242000Y-87838500D01*
G75*
G02*
X118389500Y-87691000I147500J0D01*
G01*
X118684500Y-87691000D01*
G75*
G02*
X118832000Y-87838500I0J-147500D01*
G01*
X118832000Y-88183500D01*
G75*
G02*
X118684500Y-88331000I-147500J0D01*
G01*
X118389500Y-88331000D01*
G75*
G02*
X118242000Y-88183500I0J147500D01*
G01*
G37*
G36*
G01*
X107102000Y-90632500D02*
X107102000Y-90977500D01*
G75*
G02*
X106954500Y-91125000I-147500J0D01*
G01*
X106659500Y-91125000D01*
G75*
G02*
X106512000Y-90977500I0J147500D01*
G01*
X106512000Y-90632500D01*
G75*
G02*
X106659500Y-90485000I147500J0D01*
G01*
X106954500Y-90485000D01*
G75*
G02*
X107102000Y-90632500I0J-147500D01*
G01*
G37*
G36*
G01*
X106132000Y-90632500D02*
X106132000Y-90977500D01*
G75*
G02*
X105984500Y-91125000I-147500J0D01*
G01*
X105689500Y-91125000D01*
G75*
G02*
X105542000Y-90977500I0J147500D01*
G01*
X105542000Y-90632500D01*
G75*
G02*
X105689500Y-90485000I147500J0D01*
G01*
X105984500Y-90485000D01*
G75*
G02*
X106132000Y-90632500I0J-147500D01*
G01*
G37*
G36*
G01*
X107196340Y-78656470D02*
X107196340Y-79168970D01*
G75*
G02*
X106977590Y-79387720I-218750J0D01*
G01*
X106540090Y-79387720D01*
G75*
G02*
X106321340Y-79168970I0J218750D01*
G01*
X106321340Y-78656470D01*
G75*
G02*
X106540090Y-78437720I218750J0D01*
G01*
X106977590Y-78437720D01*
G75*
G02*
X107196340Y-78656470I0J-218750D01*
G01*
G37*
G36*
G01*
X105621340Y-78656470D02*
X105621340Y-79168970D01*
G75*
G02*
X105402590Y-79387720I-218750J0D01*
G01*
X104965090Y-79387720D01*
G75*
G02*
X104746340Y-79168970I0J218750D01*
G01*
X104746340Y-78656470D01*
G75*
G02*
X104965090Y-78437720I218750J0D01*
G01*
X105402590Y-78437720D01*
G75*
G02*
X105621340Y-78656470I0J-218750D01*
G01*
G37*
G36*
G01*
X107396500Y-80881000D02*
X107741500Y-80881000D01*
G75*
G02*
X107889000Y-81028500I0J-147500D01*
G01*
X107889000Y-81323500D01*
G75*
G02*
X107741500Y-81471000I-147500J0D01*
G01*
X107396500Y-81471000D01*
G75*
G02*
X107249000Y-81323500I0J147500D01*
G01*
X107249000Y-81028500D01*
G75*
G02*
X107396500Y-80881000I147500J0D01*
G01*
G37*
G36*
G01*
X107396500Y-81851000D02*
X107741500Y-81851000D01*
G75*
G02*
X107889000Y-81998500I0J-147500D01*
G01*
X107889000Y-82293500D01*
G75*
G02*
X107741500Y-82441000I-147500J0D01*
G01*
X107396500Y-82441000D01*
G75*
G02*
X107249000Y-82293500I0J147500D01*
G01*
X107249000Y-81998500D01*
G75*
G02*
X107396500Y-81851000I147500J0D01*
G01*
G37*
G36*
G01*
X108412500Y-81851000D02*
X108757500Y-81851000D01*
G75*
G02*
X108905000Y-81998500I0J-147500D01*
G01*
X108905000Y-82293500D01*
G75*
G02*
X108757500Y-82441000I-147500J0D01*
G01*
X108412500Y-82441000D01*
G75*
G02*
X108265000Y-82293500I0J147500D01*
G01*
X108265000Y-81998500D01*
G75*
G02*
X108412500Y-81851000I147500J0D01*
G01*
G37*
G36*
G01*
X108412500Y-80881000D02*
X108757500Y-80881000D01*
G75*
G02*
X108905000Y-81028500I0J-147500D01*
G01*
X108905000Y-81323500D01*
G75*
G02*
X108757500Y-81471000I-147500J0D01*
G01*
X108412500Y-81471000D01*
G75*
G02*
X108265000Y-81323500I0J147500D01*
G01*
X108265000Y-81028500D01*
G75*
G02*
X108412500Y-80881000I147500J0D01*
G01*
G37*
G36*
G01*
X118219000Y-90215500D02*
X118219000Y-89870500D01*
G75*
G02*
X118366500Y-89723000I147500J0D01*
G01*
X118661500Y-89723000D01*
G75*
G02*
X118809000Y-89870500I0J-147500D01*
G01*
X118809000Y-90215500D01*
G75*
G02*
X118661500Y-90363000I-147500J0D01*
G01*
X118366500Y-90363000D01*
G75*
G02*
X118219000Y-90215500I0J147500D01*
G01*
G37*
G36*
G01*
X119189000Y-90215500D02*
X119189000Y-89870500D01*
G75*
G02*
X119336500Y-89723000I147500J0D01*
G01*
X119631500Y-89723000D01*
G75*
G02*
X119779000Y-89870500I0J-147500D01*
G01*
X119779000Y-90215500D01*
G75*
G02*
X119631500Y-90363000I-147500J0D01*
G01*
X119336500Y-90363000D01*
G75*
G02*
X119189000Y-90215500I0J147500D01*
G01*
G37*
G36*
G01*
X103291000Y-85516500D02*
X103291000Y-85171500D01*
G75*
G02*
X103438500Y-85024000I147500J0D01*
G01*
X103733500Y-85024000D01*
G75*
G02*
X103881000Y-85171500I0J-147500D01*
G01*
X103881000Y-85516500D01*
G75*
G02*
X103733500Y-85664000I-147500J0D01*
G01*
X103438500Y-85664000D01*
G75*
G02*
X103291000Y-85516500I0J147500D01*
G01*
G37*
G36*
G01*
X102321000Y-85516500D02*
X102321000Y-85171500D01*
G75*
G02*
X102468500Y-85024000I147500J0D01*
G01*
X102763500Y-85024000D01*
G75*
G02*
X102911000Y-85171500I0J-147500D01*
G01*
X102911000Y-85516500D01*
G75*
G02*
X102763500Y-85664000I-147500J0D01*
G01*
X102468500Y-85664000D01*
G75*
G02*
X102321000Y-85516500I0J147500D01*
G01*
G37*
G36*
G01*
X109919000Y-83647500D02*
X109919000Y-83992500D01*
G75*
G02*
X109771500Y-84140000I-147500J0D01*
G01*
X109476500Y-84140000D01*
G75*
G02*
X109329000Y-83992500I0J147500D01*
G01*
X109329000Y-83647500D01*
G75*
G02*
X109476500Y-83500000I147500J0D01*
G01*
X109771500Y-83500000D01*
G75*
G02*
X109919000Y-83647500I0J-147500D01*
G01*
G37*
G36*
G01*
X110889000Y-83647500D02*
X110889000Y-83992500D01*
G75*
G02*
X110741500Y-84140000I-147500J0D01*
G01*
X110446500Y-84140000D01*
G75*
G02*
X110299000Y-83992500I0J147500D01*
G01*
X110299000Y-83647500D01*
G75*
G02*
X110446500Y-83500000I147500J0D01*
G01*
X110741500Y-83500000D01*
G75*
G02*
X110889000Y-83647500I0J-147500D01*
G01*
G37*
G36*
G01*
X100462700Y-92352150D02*
X100462700Y-92864650D01*
G75*
G02*
X100243950Y-93083400I-218750J0D01*
G01*
X99806450Y-93083400D01*
G75*
G02*
X99587700Y-92864650I0J218750D01*
G01*
X99587700Y-92352150D01*
G75*
G02*
X99806450Y-92133400I218750J0D01*
G01*
X100243950Y-92133400D01*
G75*
G02*
X100462700Y-92352150I0J-218750D01*
G01*
G37*
G36*
G01*
X98887700Y-92352150D02*
X98887700Y-92864650D01*
G75*
G02*
X98668950Y-93083400I-218750J0D01*
G01*
X98231450Y-93083400D01*
G75*
G02*
X98012700Y-92864650I0J218750D01*
G01*
X98012700Y-92352150D01*
G75*
G02*
X98231450Y-92133400I218750J0D01*
G01*
X98668950Y-92133400D01*
G75*
G02*
X98887700Y-92352150I0J-218750D01*
G01*
G37*
G36*
G01*
X103307300Y-95196950D02*
X103307300Y-95709450D01*
G75*
G02*
X103088550Y-95928200I-218750J0D01*
G01*
X102651050Y-95928200D01*
G75*
G02*
X102432300Y-95709450I0J218750D01*
G01*
X102432300Y-95196950D01*
G75*
G02*
X102651050Y-94978200I218750J0D01*
G01*
X103088550Y-94978200D01*
G75*
G02*
X103307300Y-95196950I0J-218750D01*
G01*
G37*
G36*
G01*
X104882300Y-95196950D02*
X104882300Y-95709450D01*
G75*
G02*
X104663550Y-95928200I-218750J0D01*
G01*
X104226050Y-95928200D01*
G75*
G02*
X104007300Y-95709450I0J218750D01*
G01*
X104007300Y-95196950D01*
G75*
G02*
X104226050Y-94978200I218750J0D01*
G01*
X104663550Y-94978200D01*
G75*
G02*
X104882300Y-95196950I0J-218750D01*
G01*
G37*
G36*
G01*
X101645500Y-93663000D02*
X101300500Y-93663000D01*
G75*
G02*
X101153000Y-93515500I0J147500D01*
G01*
X101153000Y-93220500D01*
G75*
G02*
X101300500Y-93073000I147500J0D01*
G01*
X101645500Y-93073000D01*
G75*
G02*
X101793000Y-93220500I0J-147500D01*
G01*
X101793000Y-93515500D01*
G75*
G02*
X101645500Y-93663000I-147500J0D01*
G01*
G37*
G36*
G01*
X101645500Y-94633000D02*
X101300500Y-94633000D01*
G75*
G02*
X101153000Y-94485500I0J147500D01*
G01*
X101153000Y-94190500D01*
G75*
G02*
X101300500Y-94043000I147500J0D01*
G01*
X101645500Y-94043000D01*
G75*
G02*
X101793000Y-94190500I0J-147500D01*
G01*
X101793000Y-94485500D01*
G75*
G02*
X101645500Y-94633000I-147500J0D01*
G01*
G37*
G36*
G01*
X118219000Y-89199500D02*
X118219000Y-88854500D01*
G75*
G02*
X118366500Y-88707000I147500J0D01*
G01*
X118661500Y-88707000D01*
G75*
G02*
X118809000Y-88854500I0J-147500D01*
G01*
X118809000Y-89199500D01*
G75*
G02*
X118661500Y-89347000I-147500J0D01*
G01*
X118366500Y-89347000D01*
G75*
G02*
X118219000Y-89199500I0J147500D01*
G01*
G37*
G36*
G01*
X119189000Y-89199500D02*
X119189000Y-88854500D01*
G75*
G02*
X119336500Y-88707000I147500J0D01*
G01*
X119631500Y-88707000D01*
G75*
G02*
X119779000Y-88854500I0J-147500D01*
G01*
X119779000Y-89199500D01*
G75*
G02*
X119631500Y-89347000I-147500J0D01*
G01*
X119336500Y-89347000D01*
G75*
G02*
X119189000Y-89199500I0J147500D01*
G01*
G37*
G36*
G01*
X127363000Y-88877500D02*
X127018000Y-88877500D01*
G75*
G02*
X126870500Y-88730000I0J147500D01*
G01*
X126870500Y-88435000D01*
G75*
G02*
X127018000Y-88287500I147500J0D01*
G01*
X127363000Y-88287500D01*
G75*
G02*
X127510500Y-88435000I0J-147500D01*
G01*
X127510500Y-88730000D01*
G75*
G02*
X127363000Y-88877500I-147500J0D01*
G01*
G37*
G36*
G01*
X127363000Y-87907500D02*
X127018000Y-87907500D01*
G75*
G02*
X126870500Y-87760000I0J147500D01*
G01*
X126870500Y-87465000D01*
G75*
G02*
X127018000Y-87317500I147500J0D01*
G01*
X127363000Y-87317500D01*
G75*
G02*
X127510500Y-87465000I0J-147500D01*
G01*
X127510500Y-87760000D01*
G75*
G02*
X127363000Y-87907500I-147500J0D01*
G01*
G37*
G36*
G01*
X129427950Y-84272540D02*
X128915450Y-84272540D01*
G75*
G02*
X128696700Y-84053790I0J218750D01*
G01*
X128696700Y-83616290D01*
G75*
G02*
X128915450Y-83397540I218750J0D01*
G01*
X129427950Y-83397540D01*
G75*
G02*
X129646700Y-83616290I0J-218750D01*
G01*
X129646700Y-84053790D01*
G75*
G02*
X129427950Y-84272540I-218750J0D01*
G01*
G37*
G36*
G01*
X129427950Y-85847540D02*
X128915450Y-85847540D01*
G75*
G02*
X128696700Y-85628790I0J218750D01*
G01*
X128696700Y-85191290D01*
G75*
G02*
X128915450Y-84972540I218750J0D01*
G01*
X129427950Y-84972540D01*
G75*
G02*
X129646700Y-85191290I0J-218750D01*
G01*
X129646700Y-85628790D01*
G75*
G02*
X129427950Y-85847540I-218750J0D01*
G01*
G37*
G36*
G01*
X125575350Y-85541300D02*
X126087850Y-85541300D01*
G75*
G02*
X126306600Y-85760050I0J-218750D01*
G01*
X126306600Y-86197550D01*
G75*
G02*
X126087850Y-86416300I-218750J0D01*
G01*
X125575350Y-86416300D01*
G75*
G02*
X125356600Y-86197550I0J218750D01*
G01*
X125356600Y-85760050D01*
G75*
G02*
X125575350Y-85541300I218750J0D01*
G01*
G37*
G36*
G01*
X125575350Y-87116300D02*
X126087850Y-87116300D01*
G75*
G02*
X126306600Y-87335050I0J-218750D01*
G01*
X126306600Y-87772550D01*
G75*
G02*
X126087850Y-87991300I-218750J0D01*
G01*
X125575350Y-87991300D01*
G75*
G02*
X125356600Y-87772550I0J218750D01*
G01*
X125356600Y-87335050D01*
G75*
G02*
X125575350Y-87116300I218750J0D01*
G01*
G37*
G36*
G01*
X131526500Y-85938000D02*
X131871500Y-85938000D01*
G75*
G02*
X132019000Y-86085500I0J-147500D01*
G01*
X132019000Y-86380500D01*
G75*
G02*
X131871500Y-86528000I-147500J0D01*
G01*
X131526500Y-86528000D01*
G75*
G02*
X131379000Y-86380500I0J147500D01*
G01*
X131379000Y-86085500D01*
G75*
G02*
X131526500Y-85938000I147500J0D01*
G01*
G37*
G36*
G01*
X131526500Y-86908000D02*
X131871500Y-86908000D01*
G75*
G02*
X132019000Y-87055500I0J-147500D01*
G01*
X132019000Y-87350500D01*
G75*
G02*
X131871500Y-87498000I-147500J0D01*
G01*
X131526500Y-87498000D01*
G75*
G02*
X131379000Y-87350500I0J147500D01*
G01*
X131379000Y-87055500D01*
G75*
G02*
X131526500Y-86908000I147500J0D01*
G01*
G37*
G36*
G01*
X132669500Y-85938000D02*
X133014500Y-85938000D01*
G75*
G02*
X133162000Y-86085500I0J-147500D01*
G01*
X133162000Y-86380500D01*
G75*
G02*
X133014500Y-86528000I-147500J0D01*
G01*
X132669500Y-86528000D01*
G75*
G02*
X132522000Y-86380500I0J147500D01*
G01*
X132522000Y-86085500D01*
G75*
G02*
X132669500Y-85938000I147500J0D01*
G01*
G37*
G36*
G01*
X132669500Y-84968000D02*
X133014500Y-84968000D01*
G75*
G02*
X133162000Y-85115500I0J-147500D01*
G01*
X133162000Y-85410500D01*
G75*
G02*
X133014500Y-85558000I-147500J0D01*
G01*
X132669500Y-85558000D01*
G75*
G02*
X132522000Y-85410500I0J147500D01*
G01*
X132522000Y-85115500D01*
G75*
G02*
X132669500Y-84968000I147500J0D01*
G01*
G37*
G36*
G01*
X102344000Y-86532500D02*
X102344000Y-86187500D01*
G75*
G02*
X102491500Y-86040000I147500J0D01*
G01*
X102786500Y-86040000D01*
G75*
G02*
X102934000Y-86187500I0J-147500D01*
G01*
X102934000Y-86532500D01*
G75*
G02*
X102786500Y-86680000I-147500J0D01*
G01*
X102491500Y-86680000D01*
G75*
G02*
X102344000Y-86532500I0J147500D01*
G01*
G37*
G36*
G01*
X103314000Y-86532500D02*
X103314000Y-86187500D01*
G75*
G02*
X103461500Y-86040000I147500J0D01*
G01*
X103756500Y-86040000D01*
G75*
G02*
X103904000Y-86187500I0J-147500D01*
G01*
X103904000Y-86532500D01*
G75*
G02*
X103756500Y-86680000I-147500J0D01*
G01*
X103461500Y-86680000D01*
G75*
G02*
X103314000Y-86532500I0J147500D01*
G01*
G37*
G36*
G01*
X101500650Y-84054100D02*
X100988150Y-84054100D01*
G75*
G02*
X100769400Y-83835350I0J218750D01*
G01*
X100769400Y-83397850D01*
G75*
G02*
X100988150Y-83179100I218750J0D01*
G01*
X101500650Y-83179100D01*
G75*
G02*
X101719400Y-83397850I0J-218750D01*
G01*
X101719400Y-83835350D01*
G75*
G02*
X101500650Y-84054100I-218750J0D01*
G01*
G37*
G36*
G01*
X101500650Y-85629100D02*
X100988150Y-85629100D01*
G75*
G02*
X100769400Y-85410350I0J218750D01*
G01*
X100769400Y-84972850D01*
G75*
G02*
X100988150Y-84754100I218750J0D01*
G01*
X101500650Y-84754100D01*
G75*
G02*
X101719400Y-84972850I0J-218750D01*
G01*
X101719400Y-85410350D01*
G75*
G02*
X101500650Y-85629100I-218750J0D01*
G01*
G37*
G36*
G01*
X106998000Y-99776500D02*
X106998000Y-100121500D01*
G75*
G02*
X106850500Y-100269000I-147500J0D01*
G01*
X106555500Y-100269000D01*
G75*
G02*
X106408000Y-100121500I0J147500D01*
G01*
X106408000Y-99776500D01*
G75*
G02*
X106555500Y-99629000I147500J0D01*
G01*
X106850500Y-99629000D01*
G75*
G02*
X106998000Y-99776500I0J-147500D01*
G01*
G37*
G36*
G01*
X107968000Y-99776500D02*
X107968000Y-100121500D01*
G75*
G02*
X107820500Y-100269000I-147500J0D01*
G01*
X107525500Y-100269000D01*
G75*
G02*
X107378000Y-100121500I0J147500D01*
G01*
X107378000Y-99776500D01*
G75*
G02*
X107525500Y-99629000I147500J0D01*
G01*
X107820500Y-99629000D01*
G75*
G02*
X107968000Y-99776500I0J-147500D01*
G01*
G37*
G36*
G01*
X103307500Y-87526150D02*
X103307500Y-88038650D01*
G75*
G02*
X103088750Y-88257400I-218750J0D01*
G01*
X102651250Y-88257400D01*
G75*
G02*
X102432500Y-88038650I0J218750D01*
G01*
X102432500Y-87526150D01*
G75*
G02*
X102651250Y-87307400I218750J0D01*
G01*
X103088750Y-87307400D01*
G75*
G02*
X103307500Y-87526150I0J-218750D01*
G01*
G37*
G36*
G01*
X101732500Y-87526150D02*
X101732500Y-88038650D01*
G75*
G02*
X101513750Y-88257400I-218750J0D01*
G01*
X101076250Y-88257400D01*
G75*
G02*
X100857500Y-88038650I0J218750D01*
G01*
X100857500Y-87526150D01*
G75*
G02*
X101076250Y-87307400I218750J0D01*
G01*
X101513750Y-87307400D01*
G75*
G02*
X101732500Y-87526150I0J-218750D01*
G01*
G37*
G36*
G01*
X123888000Y-92184000D02*
X123888000Y-91839000D01*
G75*
G02*
X124035500Y-91691500I147500J0D01*
G01*
X124330500Y-91691500D01*
G75*
G02*
X124478000Y-91839000I0J-147500D01*
G01*
X124478000Y-92184000D01*
G75*
G02*
X124330500Y-92331500I-147500J0D01*
G01*
X124035500Y-92331500D01*
G75*
G02*
X123888000Y-92184000I0J147500D01*
G01*
G37*
G36*
G01*
X122918000Y-92184000D02*
X122918000Y-91839000D01*
G75*
G02*
X123065500Y-91691500I147500J0D01*
G01*
X123360500Y-91691500D01*
G75*
G02*
X123508000Y-91839000I0J-147500D01*
G01*
X123508000Y-92184000D01*
G75*
G02*
X123360500Y-92331500I-147500J0D01*
G01*
X123065500Y-92331500D01*
G75*
G02*
X122918000Y-92184000I0J147500D01*
G01*
G37*
G36*
G01*
X123888000Y-93327000D02*
X123888000Y-92982000D01*
G75*
G02*
X124035500Y-92834500I147500J0D01*
G01*
X124330500Y-92834500D01*
G75*
G02*
X124478000Y-92982000I0J-147500D01*
G01*
X124478000Y-93327000D01*
G75*
G02*
X124330500Y-93474500I-147500J0D01*
G01*
X124035500Y-93474500D01*
G75*
G02*
X123888000Y-93327000I0J147500D01*
G01*
G37*
G36*
G01*
X122918000Y-93327000D02*
X122918000Y-92982000D01*
G75*
G02*
X123065500Y-92834500I147500J0D01*
G01*
X123360500Y-92834500D01*
G75*
G02*
X123508000Y-92982000I0J-147500D01*
G01*
X123508000Y-93327000D01*
G75*
G02*
X123360500Y-93474500I-147500J0D01*
G01*
X123065500Y-93474500D01*
G75*
G02*
X122918000Y-93327000I0J147500D01*
G01*
G37*
G36*
G01*
X123888000Y-94470000D02*
X123888000Y-94125000D01*
G75*
G02*
X124035500Y-93977500I147500J0D01*
G01*
X124330500Y-93977500D01*
G75*
G02*
X124478000Y-94125000I0J-147500D01*
G01*
X124478000Y-94470000D01*
G75*
G02*
X124330500Y-94617500I-147500J0D01*
G01*
X124035500Y-94617500D01*
G75*
G02*
X123888000Y-94470000I0J147500D01*
G01*
G37*
G36*
G01*
X122918000Y-94470000D02*
X122918000Y-94125000D01*
G75*
G02*
X123065500Y-93977500I147500J0D01*
G01*
X123360500Y-93977500D01*
G75*
G02*
X123508000Y-94125000I0J-147500D01*
G01*
X123508000Y-94470000D01*
G75*
G02*
X123360500Y-94617500I-147500J0D01*
G01*
X123065500Y-94617500D01*
G75*
G02*
X122918000Y-94470000I0J147500D01*
G01*
G37*
M02*
